<svg xmlns="http://www.w3.org/2000/svg" xmlns:xlink="http://www.w3.org/1999/xlink" width="336" zoomAndPan="magnify" viewBox="0 0 252 143.999998" height="192" preserveAspectRatio="xMidYMid meet" version="1.0"><defs><g/><clipPath id="e5c6291bba"><rect x="0" width="110" y="0" height="36"/></clipPath><clipPath id="60f92f820a"><path d="M 0.0390625 7 L 15 7 L 15 25 L 0.0390625 25 Z M 0.0390625 7 " clip-rule="nonzero"/></clipPath><clipPath id="699845c127"><rect x="0" width="89" y="0" height="34"/></clipPath><clipPath id="2d9ae705e5"><path d="M 84 27 L 162 27 L 162 78 L 84 78 Z M 84 27 " clip-rule="nonzero"/></clipPath><clipPath id="23859d4e21"><path d="M 117.847656 102.984375 L 79.238281 55.113281 L 134.113281 10.851562 L 172.722656 58.722656 Z M 117.847656 102.984375 " clip-rule="nonzero"/></clipPath><clipPath id="f8789013e4"><path d="M 117.847656 102.984375 L 79.238281 55.113281 L 134.113281 10.851562 L 172.722656 58.722656 Z M 117.847656 102.984375 " clip-rule="nonzero"/></clipPath><clipPath id="df623ee89e"><path d="M 117.847656 102.984375 L 79.324219 55.222656 L 134.152344 11 L 172.671875 58.761719 Z M 117.847656 102.984375 " clip-rule="nonzero"/></clipPath></defs><g transform="matrix(1, 0, 0, 1, 28, 64)"><g clip-path="url(#e5c6291bba)"><g fill="#55001d" fill-opacity="1"><g transform="translate(0.418646, 26.632484)"><g><path d="M 18.765625 0.421875 C 17.210938 0.421875 15.859375 0.078125 14.703125 -0.609375 C 13.554688 -1.304688 12.648438 -2.25 11.984375 -3.4375 C 11.316406 -4.625 10.9375 -5.941406 10.84375 -7.390625 C 10.800781 -8.285156 10.8125 -9.023438 10.875 -9.609375 C 10.945312 -10.203125 11.039062 -10.742188 11.15625 -11.234375 C 11.269531 -11.734375 11.351562 -12.285156 11.40625 -12.890625 L 11.125 -13.09375 C 10.914062 -12.925781 10.6875 -12.84375 10.4375 -12.84375 C 9.976562 -12.84375 9.617188 -12.96875 9.359375 -13.21875 C 9.109375 -13.476562 8.984375 -13.804688 8.984375 -14.203125 C 8.984375 -14.566406 9.109375 -14.867188 9.359375 -15.109375 C 9.617188 -15.359375 9.96875 -15.484375 10.40625 -15.484375 C 10.75 -15.484375 11.101562 -15.347656 11.46875 -15.078125 C 11.832031 -14.816406 12.039062 -14.421875 12.09375 -13.890625 C 12.894531 -13.660156 13.722656 -13.679688 14.578125 -13.953125 C 15.429688 -14.234375 16.148438 -14.722656 16.734375 -15.421875 C 17.328125 -16.128906 17.625 -17 17.625 -18.03125 C 17.625 -19.019531 17.421875 -19.921875 17.015625 -20.734375 C 16.609375 -21.554688 15.957031 -22.210938 15.0625 -22.703125 C 14.164062 -23.203125 12.96875 -23.453125 11.46875 -23.453125 L 6.28125 -23.453125 L 6.28125 -8.84375 C 6.28125 -6.5625 6.410156 -4.707031 6.671875 -3.28125 C 6.941406 -1.851562 7.226562 -0.898438 7.53125 -0.421875 L 7.53125 0 L 1.078125 0 L 1.078125 -0.421875 C 1.742188 -1.453125 2.078125 -4.257812 2.078125 -8.84375 L 2.078125 -15.296875 C 2.078125 -17.628906 1.988281 -19.503906 1.8125 -20.921875 C 1.632812 -22.335938 1.390625 -23.285156 1.078125 -23.765625 L 1.078125 -24.1875 L 13.0625 -24.1875 C 15.914062 -24.1875 17.992188 -23.613281 19.296875 -22.46875 C 20.597656 -21.332031 21.25 -19.910156 21.25 -18.203125 C 21.25 -17.078125 20.972656 -16.09375 20.421875 -15.25 C 19.867188 -14.40625 19.144531 -13.742188 18.25 -13.265625 C 17.363281 -12.785156 16.421875 -12.507812 15.421875 -12.4375 C 14.421875 -12.363281 13.484375 -12.523438 12.609375 -12.921875 L 12.40625 -12.71875 C 12.675781 -11.445312 13 -10.1875 13.375 -8.9375 C 13.757812 -7.695312 14.238281 -6.582031 14.8125 -5.59375 C 15.394531 -4.601562 16.097656 -3.804688 16.921875 -3.203125 C 17.753906 -2.609375 18.757812 -2.3125 19.9375 -2.3125 C 20.789062 -2.3125 21.5625 -2.503906 22.25 -2.890625 C 22.9375 -3.285156 23.488281 -3.820312 23.90625 -4.5 C 24.320312 -5.1875 24.53125 -5.957031 24.53125 -6.8125 C 24.53125 -7.9375 24.21875 -8.882812 23.59375 -9.65625 C 22.96875 -10.425781 22.113281 -10.8125 21.03125 -10.8125 C 20.1875 -10.8125 19.519531 -10.515625 19.03125 -9.921875 C 18.550781 -9.335938 18.3125 -8.710938 18.3125 -8.046875 C 18.3125 -7.335938 18.507812 -6.78125 18.90625 -6.375 C 19.3125 -5.96875 19.847656 -5.847656 20.515625 -6.015625 L 20.5625 -5.671875 C 20.4375 -5.597656 20.273438 -5.539062 20.078125 -5.5 C 19.890625 -5.46875 19.703125 -5.453125 19.515625 -5.453125 C 18.753906 -5.453125 18.0625 -5.757812 17.4375 -6.375 C 16.820312 -6.988281 16.515625 -7.753906 16.515625 -8.671875 C 16.515625 -9.679688 16.875 -10.578125 17.59375 -11.359375 C 18.320312 -12.148438 19.285156 -12.546875 20.484375 -12.546875 C 21.429688 -12.546875 22.285156 -12.296875 23.046875 -11.796875 C 23.804688 -11.304688 24.410156 -10.609375 24.859375 -9.703125 C 25.304688 -8.804688 25.53125 -7.769531 25.53125 -6.59375 C 25.53125 -5.21875 25.222656 -4.003906 24.609375 -2.953125 C 24.003906 -1.898438 23.1875 -1.070312 22.15625 -0.46875 C 21.132812 0.125 20.003906 0.421875 18.765625 0.421875 Z M 18.765625 0.421875 "/></g></g></g><g fill="#55001d" fill-opacity="1"><g transform="translate(28.163312, 26.632484)"><g><path d="M 13.265625 0.421875 C 10.734375 0.421875 8.539062 -0.128906 6.6875 -1.234375 C 4.832031 -2.347656 3.398438 -3.847656 2.390625 -5.734375 C 1.390625 -7.617188 0.890625 -9.738281 0.890625 -12.09375 C 0.890625 -14.4375 1.390625 -16.550781 2.390625 -18.4375 C 3.398438 -20.332031 4.832031 -21.832031 6.6875 -22.9375 C 8.539062 -24.039062 10.734375 -24.59375 13.265625 -24.59375 C 15.816406 -24.59375 18.019531 -24.039062 19.875 -22.9375 C 21.726562 -21.832031 23.148438 -20.332031 24.140625 -18.4375 C 25.140625 -16.550781 25.640625 -14.4375 25.640625 -12.09375 C 25.640625 -9.738281 25.140625 -7.617188 24.140625 -5.734375 C 23.148438 -3.847656 21.726562 -2.347656 19.875 -1.234375 C 18.019531 -0.128906 15.816406 0.421875 13.265625 0.421875 Z M 13.265625 -0.375 C 14.972656 -0.375 16.414062 -0.875 17.59375 -1.875 C 18.78125 -2.882812 19.6875 -4.269531 20.3125 -6.03125 C 20.9375 -7.789062 21.25 -9.8125 21.25 -12.09375 C 21.25 -14.394531 20.9375 -16.421875 20.3125 -18.171875 C 19.6875 -19.921875 18.78125 -21.296875 17.59375 -22.296875 C 16.414062 -23.296875 14.972656 -23.796875 13.265625 -23.796875 C 11.554688 -23.796875 10.109375 -23.296875 8.921875 -22.296875 C 7.742188 -21.296875 6.84375 -19.921875 6.21875 -18.171875 C 5.59375 -16.421875 5.28125 -14.394531 5.28125 -12.09375 C 5.28125 -9.8125 5.59375 -7.789062 6.21875 -6.03125 C 6.84375 -4.269531 7.742188 -2.882812 8.921875 -1.875 C 10.109375 -0.875 11.554688 -0.375 13.265625 -0.375 Z M 13.265625 -0.375 "/></g></g></g><g fill="#55001d" fill-opacity="1"><g transform="translate(56.322594, 26.632484)"><g><path d="M 18.765625 0.421875 C 17.210938 0.421875 15.859375 0.078125 14.703125 -0.609375 C 13.554688 -1.304688 12.648438 -2.25 11.984375 -3.4375 C 11.316406 -4.625 10.9375 -5.941406 10.84375 -7.390625 C 10.800781 -8.285156 10.8125 -9.023438 10.875 -9.609375 C 10.945312 -10.203125 11.039062 -10.742188 11.15625 -11.234375 C 11.269531 -11.734375 11.351562 -12.285156 11.40625 -12.890625 L 11.125 -13.09375 C 10.914062 -12.925781 10.6875 -12.84375 10.4375 -12.84375 C 9.976562 -12.84375 9.617188 -12.96875 9.359375 -13.21875 C 9.109375 -13.476562 8.984375 -13.804688 8.984375 -14.203125 C 8.984375 -14.566406 9.109375 -14.867188 9.359375 -15.109375 C 9.617188 -15.359375 9.96875 -15.484375 10.40625 -15.484375 C 10.75 -15.484375 11.101562 -15.347656 11.46875 -15.078125 C 11.832031 -14.816406 12.039062 -14.421875 12.09375 -13.890625 C 12.894531 -13.660156 13.722656 -13.679688 14.578125 -13.953125 C 15.429688 -14.234375 16.148438 -14.722656 16.734375 -15.421875 C 17.328125 -16.128906 17.625 -17 17.625 -18.03125 C 17.625 -19.019531 17.421875 -19.921875 17.015625 -20.734375 C 16.609375 -21.554688 15.957031 -22.210938 15.0625 -22.703125 C 14.164062 -23.203125 12.96875 -23.453125 11.46875 -23.453125 L 6.28125 -23.453125 L 6.28125 -8.84375 C 6.28125 -6.5625 6.410156 -4.707031 6.671875 -3.28125 C 6.941406 -1.851562 7.226562 -0.898438 7.53125 -0.421875 L 7.53125 0 L 1.078125 0 L 1.078125 -0.421875 C 1.742188 -1.453125 2.078125 -4.257812 2.078125 -8.84375 L 2.078125 -15.296875 C 2.078125 -17.628906 1.988281 -19.503906 1.8125 -20.921875 C 1.632812 -22.335938 1.390625 -23.285156 1.078125 -23.765625 L 1.078125 -24.1875 L 13.0625 -24.1875 C 15.914062 -24.1875 17.992188 -23.613281 19.296875 -22.46875 C 20.597656 -21.332031 21.25 -19.910156 21.25 -18.203125 C 21.25 -17.078125 20.972656 -16.09375 20.421875 -15.25 C 19.867188 -14.40625 19.144531 -13.742188 18.25 -13.265625 C 17.363281 -12.785156 16.421875 -12.507812 15.421875 -12.4375 C 14.421875 -12.363281 13.484375 -12.523438 12.609375 -12.921875 L 12.40625 -12.71875 C 12.675781 -11.445312 13 -10.1875 13.375 -8.9375 C 13.757812 -7.695312 14.238281 -6.582031 14.8125 -5.59375 C 15.394531 -4.601562 16.097656 -3.804688 16.921875 -3.203125 C 17.753906 -2.609375 18.757812 -2.3125 19.9375 -2.3125 C 20.789062 -2.3125 21.5625 -2.503906 22.25 -2.890625 C 22.9375 -3.285156 23.488281 -3.820312 23.90625 -4.5 C 24.320312 -5.1875 24.53125 -5.957031 24.53125 -6.8125 C 24.53125 -7.9375 24.21875 -8.882812 23.59375 -9.65625 C 22.96875 -10.425781 22.113281 -10.8125 21.03125 -10.8125 C 20.1875 -10.8125 19.519531 -10.515625 19.03125 -9.921875 C 18.550781 -9.335938 18.3125 -8.710938 18.3125 -8.046875 C 18.3125 -7.335938 18.507812 -6.78125 18.90625 -6.375 C 19.3125 -5.96875 19.847656 -5.847656 20.515625 -6.015625 L 20.5625 -5.671875 C 20.4375 -5.597656 20.273438 -5.539062 20.078125 -5.5 C 19.890625 -5.46875 19.703125 -5.453125 19.515625 -5.453125 C 18.753906 -5.453125 18.0625 -5.757812 17.4375 -6.375 C 16.820312 -6.988281 16.515625 -7.753906 16.515625 -8.671875 C 16.515625 -9.679688 16.875 -10.578125 17.59375 -11.359375 C 18.320312 -12.148438 19.285156 -12.546875 20.484375 -12.546875 C 21.429688 -12.546875 22.285156 -12.296875 23.046875 -11.796875 C 23.804688 -11.304688 24.410156 -10.609375 24.859375 -9.703125 C 25.304688 -8.804688 25.53125 -7.769531 25.53125 -6.59375 C 25.53125 -5.21875 25.222656 -4.003906 24.609375 -2.953125 C 24.003906 -1.898438 23.1875 -1.070312 22.15625 -0.46875 C 21.132812 0.125 20.003906 0.421875 18.765625 0.421875 Z M 18.765625 0.421875 "/></g></g></g><g fill="#55001d" fill-opacity="1"><g transform="translate(84.067256, 26.632484)"><g><path d="M 0.71875 0 L 0.71875 -0.421875 C 1.207031 -0.898438 1.789062 -1.847656 2.46875 -3.265625 C 3.144531 -4.679688 3.875 -6.539062 4.65625 -8.84375 L 7.109375 -15.296875 C 7.921875 -17.628906 8.472656 -19.503906 8.765625 -20.921875 C 9.066406 -22.335938 9.160156 -23.285156 9.046875 -23.765625 L 9.046875 -24.1875 L 14.75 -24.1875 L 14.75 -23.765625 C 14.445312 -22.734375 15.09375 -19.910156 16.6875 -15.296875 L 19.109375 -8.84375 C 20.691406 -4.238281 22.015625 -1.429688 23.078125 -0.421875 L 23.078125 0 L 16.828125 0 L 16.828125 -0.421875 C 17.097656 -1.410156 16.441406 -4.21875 14.859375 -8.84375 L 13.203125 -13.4375 C 12.847656 -13.53125 12.476562 -13.519531 12.09375 -13.40625 C 11.71875 -13.289062 11.390625 -13.125 11.109375 -12.90625 C 10.835938 -12.6875 10.679688 -12.460938 10.640625 -12.234375 C 10.710938 -12.117188 10.769531 -11.953125 10.8125 -11.734375 C 10.851562 -11.515625 10.875 -11.3125 10.875 -11.125 C 10.875 -10.820312 10.828125 -10.507812 10.734375 -10.1875 C 10.648438 -9.863281 10.476562 -9.703125 10.21875 -9.703125 C 9.988281 -9.703125 9.816406 -9.863281 9.703125 -10.1875 C 9.585938 -10.507812 9.53125 -10.820312 9.53125 -11.125 C 9.53125 -11.3125 9.550781 -11.515625 9.59375 -11.734375 C 9.644531 -11.953125 9.707031 -12.117188 9.78125 -12.234375 C 9.757812 -12.460938 9.601562 -12.6875 9.3125 -12.90625 C 9.019531 -13.125 8.679688 -13.289062 8.296875 -13.40625 C 7.921875 -13.519531 7.5625 -13.53125 7.21875 -13.4375 L 5.53125 -8.84375 C 4.75 -6.539062 4.203125 -4.679688 3.890625 -3.265625 C 3.578125 -1.847656 3.488281 -0.898438 3.625 -0.421875 L 3.625 0 Z M 10.046875 -12.546875 L 10.359375 -12.546875 C 10.410156 -13.003906 10.6875 -13.445312 11.1875 -13.875 C 11.695312 -14.300781 12.238281 -14.523438 12.8125 -14.546875 L 10.40625 -21.34375 L 10.015625 -21.34375 L 7.59375 -14.546875 C 8.195312 -14.523438 8.75 -14.300781 9.25 -13.875 C 9.757812 -13.445312 10.023438 -13.003906 10.046875 -12.546875 Z M 10.046875 -12.546875 "/></g></g></g></g></g><g transform="matrix(1, 0, 0, 1, 137, 67)"><g clip-path="url(#699845c127)"><g clip-path="url(#60f92f820a)"><g fill="#55001d" fill-opacity="1"><g transform="translate(0.207797, 24.817045)"><g><path d="M 8.3125 -16.359375 C 7.351562 -16.359375 6.566406 -16.09375 5.953125 -15.5625 C 5.335938 -15.039062 5.03125 -14.347656 5.03125 -13.484375 C 5.03125 -12.992188 5.171875 -12.523438 5.453125 -12.078125 C 5.734375 -11.628906 6.144531 -11.25 6.6875 -10.9375 L 9.671875 -9.203125 C 10.671875 -8.617188 11.378906 -7.976562 11.796875 -7.28125 C 12.210938 -6.582031 12.421875 -5.816406 12.421875 -4.984375 C 12.421875 -4.117188 12.171875 -3.304688 11.671875 -2.546875 C 11.171875 -1.785156 10.429688 -1.171875 9.453125 -0.703125 C 8.472656 -0.234375 7.265625 0 5.828125 0 C 4.765625 0 3.828125 -0.160156 3.015625 -0.484375 C 2.210938 -0.816406 1.585938 -1.269531 1.140625 -1.84375 C 0.691406 -2.414062 0.46875 -3.0625 0.46875 -3.78125 C 0.46875 -4.632812 0.671875 -5.253906 1.078125 -5.640625 C 1.484375 -6.035156 1.972656 -6.234375 2.546875 -6.234375 C 2.921875 -6.234375 3.210938 -6.179688 3.421875 -6.078125 C 3.628906 -5.984375 3.773438 -5.882812 3.859375 -5.78125 C 3.941406 -5.675781 3.984375 -5.625 3.984375 -5.625 C 3.984375 -5.625 3.914062 -5.546875 3.78125 -5.390625 C 3.644531 -5.234375 3.503906 -5.007812 3.359375 -4.71875 C 3.222656 -4.425781 3.15625 -4.078125 3.15625 -3.671875 C 3.15625 -2.960938 3.394531 -2.390625 3.875 -1.953125 C 4.363281 -1.515625 5.066406 -1.296875 5.984375 -1.296875 C 7.046875 -1.296875 7.878906 -1.570312 8.484375 -2.125 C 9.097656 -2.6875 9.40625 -3.351562 9.40625 -4.125 C 9.40625 -4.71875 9.238281 -5.238281 8.90625 -5.6875 C 8.582031 -6.144531 8.03125 -6.59375 7.25 -7.03125 L 4.734375 -8.46875 C 3.742188 -9.03125 3.046875 -9.648438 2.640625 -10.328125 C 2.234375 -11.015625 2.03125 -11.785156 2.03125 -12.640625 C 2.03125 -13.515625 2.269531 -14.332031 2.75 -15.09375 C 3.238281 -15.851562 3.945312 -16.46875 4.875 -16.9375 C 5.8125 -17.40625 6.960938 -17.640625 8.328125 -17.640625 C 9.441406 -17.640625 10.414062 -17.46875 11.25 -17.125 C 12.09375 -16.78125 12.742188 -16.3125 13.203125 -15.71875 C 13.671875 -15.125 13.90625 -14.429688 13.90625 -13.640625 C 13.90625 -12.828125 13.703125 -12.1875 13.296875 -11.71875 C 12.890625 -11.257812 12.320312 -11.03125 11.59375 -11.03125 C 11.03125 -11.03125 10.628906 -11.128906 10.390625 -11.328125 C 10.160156 -11.535156 10.046875 -11.640625 10.046875 -11.640625 C 10.046875 -11.640625 10.144531 -11.71875 10.34375 -11.875 C 10.539062 -12.039062 10.734375 -12.296875 10.921875 -12.640625 C 11.117188 -12.992188 11.21875 -13.457031 11.21875 -14.03125 C 11.21875 -14.6875 10.984375 -15.238281 10.515625 -15.6875 C 10.046875 -16.132812 9.3125 -16.359375 8.3125 -16.359375 Z M 8.3125 -16.359375 "/></g></g></g></g><g fill="#55001d" fill-opacity="1"><g transform="translate(16.095199, 24.817045)"><g><path d="M 9.53125 -1.953125 C 10.8125 -1.953125 11.945312 -2.160156 12.9375 -2.578125 C 13.925781 -3.003906 14.6875 -3.507812 15.21875 -4.09375 C 15.40625 -4.09375 15.523438 -4.046875 15.578125 -3.953125 C 15.640625 -3.859375 15.65625 -3.734375 15.625 -3.578125 C 15.5625 -3.273438 15.335938 -2.921875 14.953125 -2.515625 C 14.566406 -2.109375 14.046875 -1.710938 13.390625 -1.328125 C 12.742188 -0.941406 11.988281 -0.625 11.125 -0.375 C 10.269531 -0.125 9.320312 0 8.28125 0 C 6.945312 0 5.742188 -0.289062 4.671875 -0.875 C 3.597656 -1.46875 2.742188 -2.304688 2.109375 -3.390625 C 1.484375 -4.484375 1.171875 -5.789062 1.171875 -7.3125 C 1.171875 -8.863281 1.394531 -10.269531 1.84375 -11.53125 C 2.289062 -12.800781 2.914062 -13.890625 3.71875 -14.796875 C 4.519531 -15.710938 5.445312 -16.414062 6.5 -16.90625 C 7.550781 -17.394531 8.6875 -17.640625 9.90625 -17.640625 C 10.894531 -17.640625 11.722656 -17.453125 12.390625 -17.078125 C 13.054688 -16.703125 13.554688 -16.210938 13.890625 -15.609375 C 14.234375 -15.003906 14.40625 -14.347656 14.40625 -13.640625 C 14.40625 -12.910156 14.265625 -12.289062 13.984375 -11.78125 C 13.710938 -11.269531 13.359375 -10.882812 12.921875 -10.625 C 12.484375 -10.363281 12.019531 -10.234375 11.53125 -10.234375 C 11.15625 -10.234375 10.851562 -10.300781 10.625 -10.4375 C 10.394531 -10.570312 10.234375 -10.703125 10.140625 -10.828125 C 10.046875 -10.960938 10 -11.03125 10 -11.03125 C 10 -11.03125 10.085938 -11.082031 10.265625 -11.1875 C 10.453125 -11.289062 10.65625 -11.46875 10.875 -11.71875 C 11.101562 -11.96875 11.304688 -12.304688 11.484375 -12.734375 C 11.671875 -13.171875 11.765625 -13.71875 11.765625 -14.375 C 11.765625 -15 11.585938 -15.484375 11.234375 -15.828125 C 10.878906 -16.179688 10.414062 -16.359375 9.84375 -16.359375 C 9.164062 -16.359375 8.503906 -16.128906 7.859375 -15.671875 C 7.210938 -15.210938 6.632812 -14.578125 6.125 -13.765625 C 5.613281 -12.960938 5.207031 -12.03125 4.90625 -10.96875 C 4.601562 -9.914062 4.453125 -8.785156 4.453125 -7.578125 C 4.453125 -5.773438 4.90625 -4.382812 5.8125 -3.40625 C 6.71875 -2.4375 7.957031 -1.953125 9.53125 -1.953125 Z M 9.53125 -1.953125 "/></g></g></g><g fill="#55001d" fill-opacity="1"><g transform="translate(33.018213, 24.817045)"><g><path d="M 9.671875 -17.640625 C 11.441406 -17.640625 12.816406 -17.054688 13.796875 -15.890625 C 14.773438 -14.722656 15.265625 -13.128906 15.265625 -11.109375 C 15.265625 -9.554688 15.066406 -8.109375 14.671875 -6.765625 C 14.285156 -5.421875 13.722656 -4.238281 12.984375 -3.21875 C 12.253906 -2.195312 11.363281 -1.40625 10.3125 -0.84375 C 9.269531 -0.28125 8.09375 0 6.78125 0 C 5.695312 0 4.734375 -0.238281 3.890625 -0.71875 C 3.054688 -1.195312 2.394531 -1.921875 1.90625 -2.890625 C 1.414062 -3.867188 1.171875 -5.085938 1.171875 -6.546875 C 1.171875 -8.140625 1.367188 -9.609375 1.765625 -10.953125 C 2.171875 -12.304688 2.742188 -13.484375 3.484375 -14.484375 C 4.234375 -15.484375 5.128906 -16.257812 6.171875 -16.8125 C 7.210938 -17.363281 8.378906 -17.640625 9.671875 -17.640625 Z M 4.65625 -8.828125 C 4.582031 -8.265625 4.519531 -7.691406 4.46875 -7.109375 C 4.425781 -6.523438 4.40625 -6.019531 4.40625 -5.59375 C 4.40625 -4.519531 4.523438 -3.664062 4.765625 -3.03125 C 5.003906 -2.40625 5.320312 -1.957031 5.71875 -1.6875 C 6.125 -1.425781 6.570312 -1.296875 7.0625 -1.296875 C 8.082031 -1.296875 9.019531 -1.914062 9.875 -3.15625 C 10.738281 -4.394531 11.367188 -6.285156 11.765625 -8.828125 C 11.859375 -9.390625 11.925781 -9.957031 11.96875 -10.53125 C 12.007812 -11.113281 12.03125 -11.617188 12.03125 -12.046875 C 12.03125 -13.128906 11.910156 -13.984375 11.671875 -14.609375 C 11.429688 -15.234375 11.113281 -15.679688 10.71875 -15.953125 C 10.320312 -16.222656 9.867188 -16.359375 9.359375 -16.359375 C 8.753906 -16.359375 8.140625 -16.101562 7.515625 -15.59375 C 6.898438 -15.082031 6.335938 -14.273438 5.828125 -13.171875 C 5.328125 -12.078125 4.9375 -10.628906 4.65625 -8.828125 Z M 4.65625 -8.828125 "/></g></g></g><g fill="#55001d" fill-opacity="1"><g transform="translate(51.212199, 24.817045)"><g><path d="M 9.671875 -17.640625 C 11.441406 -17.640625 12.816406 -17.054688 13.796875 -15.890625 C 14.773438 -14.722656 15.265625 -13.128906 15.265625 -11.109375 C 15.265625 -9.554688 15.066406 -8.109375 14.671875 -6.765625 C 14.285156 -5.421875 13.722656 -4.238281 12.984375 -3.21875 C 12.253906 -2.195312 11.363281 -1.40625 10.3125 -0.84375 C 9.269531 -0.28125 8.09375 0 6.78125 0 C 5.695312 0 4.734375 -0.238281 3.890625 -0.71875 C 3.054688 -1.195312 2.394531 -1.921875 1.90625 -2.890625 C 1.414062 -3.867188 1.171875 -5.085938 1.171875 -6.546875 C 1.171875 -8.140625 1.367188 -9.609375 1.765625 -10.953125 C 2.171875 -12.304688 2.742188 -13.484375 3.484375 -14.484375 C 4.234375 -15.484375 5.128906 -16.257812 6.171875 -16.8125 C 7.210938 -17.363281 8.378906 -17.640625 9.671875 -17.640625 Z M 4.65625 -8.828125 C 4.582031 -8.265625 4.519531 -7.691406 4.46875 -7.109375 C 4.425781 -6.523438 4.40625 -6.019531 4.40625 -5.59375 C 4.40625 -4.519531 4.523438 -3.664062 4.765625 -3.03125 C 5.003906 -2.40625 5.320312 -1.957031 5.71875 -1.6875 C 6.125 -1.425781 6.570312 -1.296875 7.0625 -1.296875 C 8.082031 -1.296875 9.019531 -1.914062 9.875 -3.15625 C 10.738281 -4.394531 11.367188 -6.285156 11.765625 -8.828125 C 11.859375 -9.390625 11.925781 -9.957031 11.96875 -10.53125 C 12.007812 -11.113281 12.03125 -11.617188 12.03125 -12.046875 C 12.03125 -13.128906 11.910156 -13.984375 11.671875 -14.609375 C 11.429688 -15.234375 11.113281 -15.679688 10.71875 -15.953125 C 10.320312 -16.222656 9.867188 -16.359375 9.359375 -16.359375 C 8.753906 -16.359375 8.140625 -16.101562 7.515625 -15.59375 C 6.898438 -15.082031 6.335938 -14.273438 5.828125 -13.171875 C 5.328125 -12.078125 4.9375 -10.628906 4.65625 -8.828125 Z M 4.65625 -8.828125 "/></g></g></g><g fill="#55001d" fill-opacity="1"><g transform="translate(69.406184, 24.817045)"><g><path d="M 8.640625 -12.59375 L 7.546875 -6.40625 C 7.546875 -6.40625 7.664062 -6.390625 7.90625 -6.359375 C 8.144531 -6.328125 8.457031 -6.3125 8.84375 -6.3125 C 9.738281 -6.3125 10.515625 -6.535156 11.171875 -6.984375 C 11.835938 -7.441406 12.351562 -8.0625 12.71875 -8.84375 C 13.082031 -9.632812 13.265625 -10.515625 13.265625 -11.484375 C 13.265625 -12.921875 12.78125 -14.09375 11.8125 -15 C 10.851562 -15.90625 9.351562 -16.359375 7.3125 -16.359375 C 6.132812 -16.359375 5.1875 -16.195312 4.46875 -15.875 C 3.75 -15.5625 3.226562 -15.175781 2.90625 -14.71875 C 2.582031 -14.257812 2.421875 -13.800781 2.421875 -13.34375 C 2.421875 -13.007812 2.503906 -12.742188 2.671875 -12.546875 C 2.835938 -12.359375 3.066406 -12.265625 3.359375 -12.265625 C 3.484375 -12.265625 3.582031 -12.273438 3.65625 -12.296875 C 3.726562 -12.316406 3.765625 -12.328125 3.765625 -12.328125 C 3.765625 -12.328125 3.765625 -12.3125 3.765625 -12.28125 C 3.773438 -12.25 3.78125 -12.195312 3.78125 -12.125 C 3.78125 -11.832031 3.628906 -11.535156 3.328125 -11.234375 C 3.035156 -10.941406 2.59375 -10.796875 2 -10.796875 C 1.226562 -10.796875 0.625 -11.007812 0.1875 -11.4375 C -0.25 -11.875 -0.46875 -12.445312 -0.46875 -13.15625 C -0.46875 -13.9375 -0.1875 -14.664062 0.375 -15.34375 C 0.9375 -16.03125 1.796875 -16.582031 2.953125 -17 C 4.117188 -17.425781 5.597656 -17.640625 7.390625 -17.640625 C 9.566406 -17.640625 11.328125 -17.363281 12.671875 -16.8125 C 14.015625 -16.257812 14.992188 -15.503906 15.609375 -14.546875 C 16.234375 -13.597656 16.546875 -12.53125 16.546875 -11.34375 C 16.546875 -10.113281 16.253906 -9.019531 15.671875 -8.0625 C 15.085938 -7.113281 14.257812 -6.367188 13.1875 -5.828125 C 12.125 -5.285156 10.863281 -5.015625 9.40625 -5.015625 C 8.988281 -5.015625 8.601562 -5.03125 8.25 -5.0625 C 7.90625 -5.09375 7.601562 -5.128906 7.34375 -5.171875 L 6.875 -2.46875 C 6.726562 -1.65625 6.6875 -1.078125 6.75 -0.734375 C 6.8125 -0.398438 6.84375 -0.234375 6.84375 -0.234375 C 6.84375 -0.234375 6.738281 -0.191406 6.53125 -0.109375 C 6.332031 -0.0351562 5.988281 0 5.5 0 C 4.644531 0 4.097656 -0.195312 3.859375 -0.59375 C 3.617188 -1 3.578125 -1.65625 3.734375 -2.5625 L 5.5 -12.703125 C 5.644531 -13.523438 5.6875 -14.097656 5.625 -14.421875 C 5.5625 -14.753906 5.53125 -14.921875 5.53125 -14.921875 C 5.53125 -14.921875 5.628906 -14.957031 5.828125 -15.03125 C 6.035156 -15.113281 6.382812 -15.15625 6.875 -15.15625 C 7.75 -15.15625 8.300781 -14.953125 8.53125 -14.546875 C 8.757812 -14.148438 8.796875 -13.5 8.640625 -12.59375 Z M 8.640625 -12.59375 "/></g></g></g></g></g><g clip-path="url(#2d9ae705e5)"><g clip-path="url(#23859d4e21)"><g clip-path="url(#f8789013e4)"><g clip-path="url(#df623ee89e)"><path fill="#620e2c" d="M 149.730469 65.183594 C 149.671875 65.335938 149.476562 65.386719 149.347656 65.292969 C 148.441406 64.664062 147.84375 63.855469 147.324219 62.898438 C 147.238281 62.75 147.480469 62.644531 147.566406 62.792969 C 147.980469 63.511719 148.589844 64.109375 149.25 64.609375 C 149.242188 64.378906 149.589844 64.316406 149.699219 64.535156 C 149.832031 64.773438 149.824219 64.941406 149.730469 65.183594 Z M 140.917969 53.023438 C 140.867188 53.027344 140.816406 53.03125 140.753906 53.042969 C 140.722656 53.050781 140.71875 53 140.75 52.992188 C 140.792969 52.976562 140.851562 52.964844 140.894531 52.949219 C 140.957031 52.9375 140.96875 53.015625 140.917969 53.023438 Z M 137.824219 70.941406 C 138.402344 70.511719 138.453125 70.214844 138.671875 69.585938 C 138.789062 69.257812 138.886719 68.996094 139.125 68.734375 C 139.191406 68.660156 139.304688 68.640625 139.375 68.730469 C 139.4375 68.804688 139.5 68.882812 139.550781 68.96875 L 139.558594 68.980469 C 139.984375 67.910156 139.769531 66.652344 140.503906 65.699219 C 140.550781 65.644531 140.628906 65.632812 140.695312 65.671875 C 140.914062 65.804688 140.972656 65.921875 141.015625 66.15625 C 141.035156 66.269531 140.859375 66.320312 140.820312 66.207031 C 140.765625 66.140625 140.707031 66.0625 140.640625 66.003906 C 140.03125 67.003906 140.304688 68.308594 139.78125 69.363281 C 139.6875 69.566406 139.351562 69.4375 139.460938 69.238281 C 139.464844 69.21875 139.484375 69.203125 139.488281 69.183594 C 139.445312 69.199219 139.398438 69.183594 139.351562 69.148438 C 139.332031 69.125 139.316406 69.105469 139.277344 69.082031 C 138.878906 69.730469 138.980469 70.644531 138.34375 71.15625 C 137.925781 71.492188 137.75 71.746094 137.484375 72.230469 C 137.273438 72.617188 136.992188 72.917969 136.652344 73.195312 C 136.429688 73.371094 136.148438 73.019531 136.367188 72.839844 C 137.050781 72.273438 137.160156 71.441406 137.824219 70.941406 Z M 141.191406 65.925781 C 141.714844 65.519531 141.695312 64.230469 141.75 63.605469 C 141.800781 63.039062 141.84375 62.460938 141.855469 61.890625 C 141.902344 60.582031 141.875 59.265625 141.761719 57.957031 C 141.757812 57.90625 141.851562 57.886719 141.84375 57.949219 C 142.058594 59.496094 142.175781 61.050781 142.128906 62.613281 C 142.097656 63.632812 142.308594 65.511719 141.417969 66.230469 C 141.242188 66.390625 140.992188 66.082031 141.191406 65.925781 Z M 123.648438 47.773438 C 123.648438 47.773438 123.640625 47.761719 123.648438 47.773438 C 123.640625 47.761719 123.640625 47.761719 123.648438 47.773438 Z M 129.242188 48.390625 C 129.257812 48.433594 129.296875 48.457031 129.347656 48.453125 C 129.386719 48.457031 129.4375 48.453125 129.46875 48.445312 C 131.109375 48.839844 132.667969 49.558594 133.980469 50.625 C 135.542969 51.882812 136.367188 54.191406 136.949219 56.058594 C 136.957031 56.070312 136.957031 56.070312 136.957031 56.089844 C 136.859375 56.238281 136.953125 56.417969 137.066406 56.472656 C 137.582031 58.324219 137.613281 60.253906 137.015625 62.117188 C 136.96875 62.242188 137.152344 62.3125 137.21875 62.1875 C 137.714844 61.207031 137.914062 60.175781 137.917969 59.121094 C 138.351562 57.414062 139.105469 55.789062 139.441406 54.046875 C 139.464844 54.03125 139.476562 54 139.5 53.984375 L 139.507812 53.996094 C 139.519531 54.003906 139.527344 53.996094 139.539062 54.007812 C 139.523438 54.035156 139.511719 54.066406 139.515625 54.117188 C 139.460938 55.574219 138.964844 56.917969 138.496094 58.292969 C 138.074219 59.539062 137.867188 60.8125 137.578125 62.09375 C 137.027344 64.625 136.191406 67.09375 135.289062 69.527344 C 135.292969 69.175781 135.261719 68.820312 135.207031 68.414062 C 135.195312 68.332031 135.183594 68.25 135.183594 68.160156 C 135.21875 68.203125 135.308594 68.203125 135.316406 68.125 C 135.425781 67.203125 135.640625 66.210938 135.96875 65.335938 C 136.265625 64.511719 136.746094 63.78125 136.964844 62.933594 C 137.035156 62.660156 136.625 62.484375 136.542969 62.765625 C 136.523438 62.855469 136.484375 62.941406 136.453125 63.039062 C 135.304688 64.601562 132.507812 63.898438 130.863281 63.703125 C 128.988281 63.492188 127.128906 63.164062 125.382812 62.414062 C 123.597656 61.660156 121.941406 60.441406 120.949219 58.757812 C 120.03125 57.214844 120.078125 55.386719 119.3125 53.789062 C 119.402344 53.808594 119.488281 53.828125 119.582031 53.828125 C 120.800781 56.667969 122.253906 61.386719 126.113281 61.230469 C 126.234375 61.222656 126.234375 61.023438 126.105469 61.015625 C 122.53125 60.835938 121.320312 56.59375 120.121094 53.824219 C 120.253906 53.808594 120.390625 53.773438 120.523438 53.71875 C 121.394531 55.828125 122.765625 57.730469 124.46875 59.238281 C 124.542969 59.304688 124.65625 59.175781 124.582031 59.109375 C 123 57.503906 121.820312 55.683594 120.976562 53.625 C 121.070312 53.605469 121.140625 53.582031 121.214844 53.5625 C 121.578125 53.429688 121.894531 53.191406 122.074219 52.851562 C 122.085938 52.839844 122.074219 52.832031 122.085938 52.820312 C 122.148438 52.808594 122.199219 52.785156 122.253906 52.757812 C 124.070312 54.71875 126.308594 56.503906 127.132812 59.121094 C 127.167969 59.234375 127.363281 59.1875 127.335938 59.0625 C 127.039062 57.746094 126.289062 56.664062 125.40625 55.65625 C 124.496094 54.59375 123.5625 53.550781 122.585938 52.542969 C 122.839844 52.339844 123.050781 52.0625 123.214844 51.75 C 125.019531 52.503906 126.503906 53.445312 128.050781 54.664062 C 129.648438 55.929688 131.289062 57.21875 132.707031 58.683594 C 132.804688 58.785156 132.980469 58.644531 132.882812 58.542969 C 130.203125 55.648438 127.066406 52.882812 123.375 51.363281 C 123.472656 51.125 123.519531 50.886719 123.53125 50.679688 C 123.542969 50.648438 123.546875 50.628906 123.546875 50.609375 C 123.605469 50.457031 123.644531 50.257812 123.65625 50.050781 C 125.71875 50.742188 127.941406 50.597656 130.050781 51.054688 C 130.167969 51.089844 130.21875 50.882812 130.101562 50.851562 C 129.046875 50.597656 127.972656 50.59375 126.910156 50.417969 C 125.816406 50.230469 124.753906 49.816406 123.664062 49.609375 C 123.648438 49.277344 123.59375 48.960938 123.460938 48.703125 C 123.507812 48.539062 123.546875 48.363281 123.566406 48.183594 C 123.621094 48.25 123.714844 48.300781 123.835938 48.273438 C 125.648438 47.953125 127.488281 47.992188 129.242188 48.390625 Z M 137.386719 55.652344 C 136.992188 54.246094 136.417969 52.699219 135.5625 51.484375 C 136.8125 52.109375 137.9375 52.832031 139.070312 53.675781 C 139.050781 53.695312 139.035156 53.722656 139.03125 53.761719 C 138.996094 53.917969 138.957031 54.074219 138.921875 54.234375 C 138.390625 54.679688 137.878906 55.164062 137.386719 55.652344 Z M 137.527344 56.191406 C 137.945312 55.761719 138.363281 55.316406 138.753906 54.855469 C 138.457031 55.949219 138.140625 57.019531 137.882812 58.113281 C 137.824219 57.546875 137.726562 56.972656 137.585938 56.417969 C 137.5625 56.34375 137.550781 56.261719 137.527344 56.191406 Z M 137.585938 65.027344 C 136.667969 67.777344 135.609375 70.464844 134.566406 73.171875 C 134.664062 72.4375 134.644531 71.695312 134.925781 71.011719 C 134.957031 71.003906 135 70.988281 135.023438 70.953125 C 135.753906 69.566406 136.222656 68.011719 136.761719 66.542969 C 137.246094 65.210938 137.679688 63.863281 138.007812 62.492188 C 138.351562 61.074219 138.605469 59.636719 139.0625 58.25 C 139.019531 58.578125 138.964844 58.894531 138.917969 59.21875 C 138.578125 61.179688 138.21875 63.136719 137.585938 65.027344 Z M 133.316406 76.046875 C 133.457031 75.839844 133.601562 75.636719 133.734375 75.417969 C 133.675781 75.574219 133.621094 75.726562 133.574219 75.875 C 133.46875 75.921875 133.390625 75.984375 133.316406 76.046875 Z M 135.644531 64.488281 C 135.6875 64.402344 135.65625 64.316406 135.609375 64.261719 C 135.769531 64.1875 135.9375 64.105469 136.089844 64.003906 C 135.886719 64.492188 135.664062 64.980469 135.539062 65.5 C 135.316406 66.347656 135.285156 67.207031 135.191406 68.082031 C 135.070312 66.855469 135.207031 65.675781 135.644531 64.488281 Z M 115.289062 51 C 115.332031 50.964844 115.328125 50.914062 115.3125 50.851562 C 115.433594 50.753906 115.601562 50.710938 115.746094 50.738281 C 115.789062 50.742188 115.808594 50.746094 115.867188 50.75 C 115.996094 50.773438 116.097656 50.855469 116.175781 50.953125 C 116.320312 51.109375 116.300781 51.378906 116.195312 51.539062 C 116.144531 51.613281 116.089844 51.675781 116.03125 51.742188 C 116.019531 51.769531 115.984375 51.796875 115.953125 51.824219 C 115.953125 51.824219 115.953125 51.824219 115.941406 51.832031 C 115.910156 51.859375 115.855469 51.882812 115.832031 51.902344 C 115.613281 52.007812 115.351562 51.910156 115.222656 51.707031 C 115.222656 51.707031 115.222656 51.707031 115.214844 51.695312 C 115.214844 51.675781 115.199219 51.652344 115.199219 51.632812 C 115.164062 51.410156 115.257812 51.207031 115.289062 51 Z M 117.761719 44.203125 C 117.769531 44.230469 117.777344 44.261719 117.78125 44.292969 C 117.796875 44.425781 118.023438 44.460938 118.058594 44.324219 C 118.0625 44.285156 118.078125 44.253906 118.082031 44.214844 C 118.277344 44.257812 118.441406 44.324219 118.589844 44.441406 C 118.609375 44.53125 118.609375 44.621094 118.597656 44.722656 C 118.570312 45 118.332031 45.175781 118.0625 45.15625 C 117.851562 45.144531 117.699219 44.976562 117.648438 44.78125 C 117.546875 44.609375 117.566406 44.359375 117.699219 44.214844 C 117.703125 44.195312 117.734375 44.1875 117.761719 44.203125 Z M 121.410156 45.464844 C 121.488281 45.582031 121.609375 45.554688 121.6875 45.476562 C 121.703125 45.625 121.636719 45.789062 121.511719 45.90625 C 121.402344 45.996094 121.257812 46.019531 121.121094 46.003906 C 120.992188 46 120.855469 45.945312 120.757812 45.828125 C 120.578125 45.625 120.625 45.300781 120.832031 45.132812 C 120.898438 45.078125 120.972656 45.035156 121.042969 45.035156 C 121.171875 45.148438 121.289062 45.292969 121.410156 45.464844 Z M 117.515625 50.457031 C 117.535156 50.457031 117.554688 50.460938 117.574219 50.460938 C 117.851562 50.492188 118.027344 50.730469 118.007812 51 C 117.988281 51.269531 117.726562 51.460938 117.46875 51.433594 C 117.449219 51.433594 117.429688 51.429688 117.410156 51.425781 C 117.132812 51.398438 116.957031 51.160156 116.976562 50.890625 C 116.992188 50.640625 117.265625 50.4375 117.515625 50.457031 Z M 119.386719 48.980469 C 119.429688 49.035156 119.464844 49.097656 119.476562 49.160156 C 119.488281 49.171875 119.5 49.164062 119.507812 49.175781 C 119.625 49.207031 119.734375 49.296875 119.792969 49.394531 C 119.820312 49.449219 119.835938 49.488281 119.871094 49.535156 C 119.9375 49.640625 119.914062 49.789062 119.878906 49.90625 C 119.835938 50.03125 119.726562 50.121094 119.609375 50.179688 C 119.558594 50.203125 119.507812 50.207031 119.457031 50.210938 C 119.699219 50.269531 119.847656 50.496094 119.839844 50.734375 C 119.824219 51.003906 119.5625 51.195312 119.304688 51.167969 C 119.285156 51.167969 119.265625 51.164062 119.242188 51.164062 C 118.964844 51.132812 118.792969 50.894531 118.808594 50.625 C 118.828125 50.375 119.058594 50.1875 119.296875 50.195312 C 119.277344 50.191406 119.277344 50.191406 119.257812 50.191406 C 119.152344 50.148438 119.085938 50.09375 119.035156 50.007812 C 118.964844 49.9375 118.914062 49.851562 118.882812 49.769531 C 118.792969 49.75 118.710938 49.691406 118.640625 49.601562 C 118.230469 49.097656 118.988281 48.488281 119.386719 48.980469 Z M 120.335938 48.449219 L 120.363281 48.484375 C 120.390625 48.515625 120.40625 48.558594 120.433594 48.589844 C 120.566406 48.574219 120.730469 48.621094 120.84375 48.765625 C 121.242188 49.257812 120.476562 49.859375 120.085938 49.375 C 120.0625 49.34375 120.035156 49.308594 120.019531 49.269531 C 119.859375 49.273438 119.714844 49.207031 119.617188 49.085938 L 119.589844 49.050781 C 119.421875 48.84375 119.464844 48.539062 119.664062 48.359375 C 119.84375 48.195312 120.179688 48.253906 120.335938 48.449219 Z M 121.5 47.800781 C 121.898438 48.296875 121.132812 48.898438 120.742188 48.414062 C 120.351562 47.929688 121.109375 47.320312 121.5 47.800781 Z M 121.9375 49.515625 C 121.679688 49.507812 121.515625 49.257812 121.5 49.015625 C 121.503906 48.996094 121.492188 48.984375 121.496094 48.964844 C 121.492188 48.894531 121.492188 48.824219 121.488281 48.753906 C 121.507812 48.484375 121.777344 48.304688 122.027344 48.320312 C 122.285156 48.328125 122.449219 48.578125 122.464844 48.820312 C 122.464844 48.839844 122.472656 48.847656 122.46875 48.871094 C 122.472656 48.941406 122.472656 49.011719 122.476562 49.082031 C 122.46875 49.359375 122.195312 49.542969 121.9375 49.515625 Z M 121.859375 50.339844 C 122.039062 50.539062 121.996094 50.863281 121.785156 51.035156 C 121.652344 51.140625 121.5 51.171875 121.332031 51.164062 C 121.054688 51.136719 120.878906 50.894531 120.898438 50.628906 C 120.910156 50.398438 121.109375 50.21875 121.332031 50.203125 C 121.523438 50.121094 121.726562 50.195312 121.859375 50.339844 Z M 120.367188 52.9375 C 120.28125 52.828125 120.253906 52.683594 120.269531 52.546875 C 120.273438 52.417969 120.328125 52.28125 120.449219 52.183594 C 120.648438 52.003906 120.976562 52.050781 121.144531 52.257812 C 121.339844 52.5 121.304688 52.816406 121.0625 53.011719 C 121.007812 53.058594 120.953125 53.082031 120.894531 53.09375 C 120.863281 53.101562 120.832031 53.109375 120.800781 53.117188 C 120.792969 53.085938 120.785156 53.074219 120.765625 53.050781 C 120.703125 52.882812 120.523438 52.886719 120.414062 52.972656 C 120.386719 52.960938 120.378906 52.949219 120.367188 52.9375 Z M 118.792969 53.140625 C 118.792969 53.140625 118.78125 53.128906 118.792969 53.140625 C 118.613281 52.941406 118.648438 52.605469 118.855469 52.457031 C 119.097656 52.261719 119.414062 52.292969 119.609375 52.535156 C 119.777344 52.746094 119.734375 53.050781 119.535156 53.230469 C 119.425781 53.320312 119.300781 53.34375 119.160156 53.332031 C 119.039062 53.246094 118.917969 53.183594 118.792969 53.140625 Z M 122.230469 52.144531 C 122.066406 51.988281 121.804688 52.160156 121.886719 52.328125 C 121.847656 52.34375 121.816406 52.351562 121.765625 52.355469 C 121.664062 52.34375 121.582031 52.285156 121.503906 52.1875 C 121.101562 51.691406 121.871094 51.09375 122.261719 51.574219 C 122.417969 51.773438 122.386719 51.980469 122.28125 52.140625 C 122.269531 52.148438 122.257812 52.15625 122.246094 52.167969 C 122.246094 52.167969 122.238281 52.15625 122.230469 52.144531 Z M 122.984375 49.867188 C 123.179688 50.109375 123.144531 50.425781 122.902344 50.621094 C 122.695312 50.789062 122.390625 50.746094 122.210938 50.546875 C 122.121094 50.4375 122.097656 50.292969 122.109375 50.15625 C 122.113281 50.027344 122.167969 49.890625 122.289062 49.792969 C 122.488281 49.613281 122.816406 49.660156 122.984375 49.867188 Z M 117.015625 52.667969 C 117.019531 52.648438 117.019531 52.628906 117.023438 52.609375 L 117.023438 52.589844 C 117.054688 52.3125 117.292969 52.136719 117.5625 52.15625 C 117.832031 52.175781 118.023438 52.4375 117.996094 52.695312 L 117.996094 52.714844 L 117.988281 52.773438 C 117.957031 53.050781 117.71875 53.226562 117.449219 53.207031 C 117.191406 53.179688 117 52.917969 117.015625 52.667969 Z M 122.578125 47.277344 C 122.546875 47.414062 122.675781 47.597656 122.824219 47.511719 C 122.910156 47.460938 122.988281 47.398438 123.054688 47.328125 C 123.070312 47.386719 123.09375 47.441406 123.109375 47.503906 L 123.074219 47.53125 C 122.867188 47.699219 122.558594 47.65625 122.378906 47.457031 C 122.199219 47.253906 122.246094 46.929688 122.453125 46.761719 L 122.488281 46.734375 C 122.542969 46.691406 122.59375 46.664062 122.65625 46.652344 C 122.683594 46.867188 122.644531 47.042969 122.578125 47.277344 Z M 117.257812 49.285156 C 117.464844 49.117188 117.773438 49.160156 117.953125 49.359375 C 118.132812 49.558594 118.085938 49.882812 117.878906 50.054688 L 117.84375 50.078125 C 117.636719 50.246094 117.328125 50.207031 117.152344 50.003906 C 116.972656 49.804688 117.015625 49.480469 117.226562 49.3125 Z M 114.957031 50.613281 L 114.949219 50.621094 C 114.9375 50.609375 114.917969 50.609375 114.910156 50.597656 C 114.929688 50.601562 114.9375 50.609375 114.957031 50.613281 Z M 118.484375 46.15625 C 118.886719 46.648438 118.117188 47.25 117.726562 46.765625 C 117.328125 46.273438 118.085938 45.660156 118.484375 46.15625 Z M 117.015625 48.355469 C 116.792969 48.28125 116.65625 48.066406 116.671875 47.835938 C 116.667969 47.765625 116.703125 47.699219 116.742188 47.632812 C 116.683594 47.609375 116.628906 47.5625 116.585938 47.507812 C 116.1875 47.011719 116.953125 46.414062 117.34375 46.894531 C 117.492188 47.082031 117.480469 47.292969 117.375 47.449219 C 117.472656 47.480469 117.554688 47.539062 117.636719 47.640625 C 117.804688 47.847656 117.761719 48.152344 117.558594 48.332031 C 117.410156 48.4375 117.175781 48.441406 117.015625 48.355469 Z M 115.792969 49.648438 C 115.703125 49.667969 115.621094 49.660156 115.554688 49.625 C 115.539062 49.671875 115.515625 49.730469 115.480469 49.777344 C 115.453125 49.832031 115.417969 49.878906 115.382812 49.925781 C 115.390625 49.847656 115.339844 49.761719 115.230469 49.757812 C 114.960938 49.761719 114.675781 49.769531 114.402344 49.792969 C 114.34375 49.605469 114.398438 49.378906 114.5625 49.265625 L 114.746094 49.117188 C 114.757812 49.105469 114.757812 49.105469 114.769531 49.097656 C 114.78125 49.089844 114.78125 49.089844 114.792969 49.082031 C 114.914062 48.964844 115.066406 48.949219 115.210938 48.996094 C 115.199219 48.914062 115.199219 48.824219 115.207031 48.742188 C 115.226562 48.476562 115.488281 48.300781 115.746094 48.308594 C 116.015625 48.328125 116.199219 48.597656 116.179688 48.847656 L 116.179688 48.867188 C 116.175781 48.886719 116.183594 48.898438 116.175781 48.90625 C 116.179688 48.957031 116.195312 49 116.199219 49.050781 C 116.265625 49.359375 116.039062 49.59375 115.792969 49.648438 Z M 119.402344 46.976562 C 119.222656 46.753906 119.28125 46.511719 119.4375 46.347656 C 119.332031 46.324219 119.214844 46.273438 119.144531 46.183594 C 119.128906 46.164062 119.105469 46.160156 119.089844 46.140625 C 119.015625 46.070312 118.953125 46.015625 118.890625 45.9375 C 118.710938 45.738281 118.765625 45.421875 118.964844 45.242188 C 119.164062 45.0625 119.480469 45.117188 119.660156 45.316406 L 119.667969 45.328125 C 119.675781 45.339844 119.707031 45.351562 119.714844 45.363281 C 119.777344 45.421875 119.84375 45.476562 119.894531 45.542969 C 120.058594 45.722656 120.019531 45.988281 119.890625 46.164062 C 119.988281 46.175781 120.101562 46.226562 120.191406 46.335938 C 120.558594 46.859375 119.800781 47.46875 119.402344 46.976562 Z M 119.253906 47.691406 C 119.652344 48.1875 118.886719 48.785156 118.496094 48.304688 C 118.105469 47.820312 118.863281 47.210938 119.253906 47.691406 Z M 114.292969 47.722656 C 114.296875 47.683594 114.324219 47.644531 114.335938 47.617188 C 114.34375 47.558594 114.347656 47.5 114.375 47.441406 C 114.441406 47.277344 114.585938 47.164062 114.757812 47.128906 C 114.921875 47.109375 115.09375 47.117188 115.25 47.132812 C 115.46875 47.15625 115.640625 47.324219 115.675781 47.550781 C 115.726562 47.765625 115.570312 47.980469 115.390625 48.070312 C 115.390625 48.070312 115.367188 48.089844 115.347656 48.085938 C 115.328125 48.105469 115.304688 48.121094 115.285156 48.140625 C 115.246094 48.207031 115.1875 48.269531 115.113281 48.3125 C 114.898438 48.449219 114.6875 48.367188 114.480469 48.246094 C 114.3125 48.125 114.253906 47.898438 114.292969 47.722656 Z M 115.855469 45.320312 C 115.96875 45.214844 116.097656 45.125 116.226562 45.058594 C 116.378906 45.136719 116.53125 45.214844 116.695312 45.28125 C 116.710938 45.300781 116.71875 45.3125 116.726562 45.34375 C 116.742188 45.386719 116.757812 45.429688 116.773438 45.46875 C 116.796875 45.523438 116.8125 45.585938 116.816406 45.636719 C 116.875 45.824219 116.816406 46.015625 116.660156 46.160156 C 116.636719 46.179688 116.617188 46.195312 116.605469 46.203125 C 116.40625 46.363281 116.085938 46.371094 115.90625 46.148438 L 115.882812 46.117188 C 115.785156 45.996094 115.757812 45.851562 115.792969 45.714844 C 115.785156 45.707031 115.796875 45.695312 115.789062 45.683594 C 115.757812 45.582031 115.789062 45.484375 115.839844 45.390625 C 115.824219 45.347656 115.835938 45.339844 115.855469 45.320312 C 115.84375 45.332031 115.84375 45.332031 115.855469 45.320312 Z M 114.191406 47.550781 C 114.203125 47.5625 114.199219 47.582031 114.207031 47.59375 C 114.1875 47.609375 114.175781 47.621094 114.152344 47.636719 C 114.15625 47.597656 114.171875 47.570312 114.191406 47.550781 Z M 125.882812 37.507812 C 125.886719 37.484375 125.886719 37.464844 125.890625 37.445312 C 127.308594 36.644531 128.519531 35.921875 130.167969 35.628906 C 131.425781 35.410156 132.515625 35.527344 133.644531 35.777344 C 133 35.789062 132.359375 35.871094 131.722656 36.023438 C 129.765625 36.476562 127.550781 36.941406 125.84375 38.0625 C 125.863281 37.886719 125.875 37.695312 125.882812 37.507812 Z M 145.84375 49.265625 C 145.832031 49.273438 145.832031 49.292969 145.839844 49.304688 C 145.675781 49.347656 145.519531 49.402344 145.371094 49.464844 C 145.460938 49.195312 145.523438 48.910156 145.589844 48.726562 C 145.890625 47.996094 146.214844 47.296875 146.601562 46.605469 C 146.625 46.570312 146.628906 46.53125 146.613281 46.488281 C 146.886719 46.285156 147.148438 46.074219 147.40625 45.832031 C 146.902344 46.980469 146.414062 48.152344 145.84375 49.265625 Z M 141.230469 50.648438 C 141.40625 50.433594 141.585938 50.234375 141.769531 50.03125 C 141.515625 50.726562 141.378906 51.507812 141.285156 52.21875 C 141.191406 52.257812 141.105469 52.308594 141.007812 52.347656 C 141.070312 51.773438 141.089844 51.214844 141.230469 50.648438 Z M 143.160156 51.105469 C 143.03125 51.191406 142.890625 51.285156 142.757812 51.371094 C 143.300781 50.246094 143.769531 49.074219 144.253906 47.921875 C 144.425781 47.800781 144.621094 47.679688 144.8125 47.578125 C 144.140625 48.679688 143.714844 49.949219 143.160156 51.105469 Z M 143.851562 48.1875 C 143.265625 49.351562 142.660156 50.53125 142.179688 51.730469 C 142.019531 51.824219 141.867188 51.910156 141.699219 51.992188 C 141.832031 51.144531 142.078125 50.347656 142.257812 49.511719 C 142.75 49.042969 143.277344 48.597656 143.851562 48.1875 Z M 146.167969 46.792969 C 145.933594 47.199219 145.703125 47.605469 145.476562 48.023438 C 145.171875 48.632812 144.996094 49.316406 144.671875 49.902344 C 144.421875 50.105469 144.175781 50.320312 143.933594 50.515625 C 144.445312 49.488281 144.691406 48.308594 145.28125 47.308594 C 145.601562 47.140625 145.890625 46.960938 146.167969 46.792969 Z M 152.730469 42.878906 C 152.894531 42.835938 153.058594 42.8125 153.234375 42.761719 C 153.847656 42.628906 154.421875 42.710938 155.011719 42.722656 C 154.667969 43.035156 154.378906 43.417969 154.070312 43.753906 C 153.601562 44.277344 153.046875 44.796875 152.707031 45.414062 C 152.648438 45.519531 152.761719 45.660156 152.878906 45.585938 C 153.875 44.816406 154.429688 43.59375 155.324219 42.726562 C 155.375 42.722656 155.433594 42.726562 155.484375 42.722656 C 155.675781 42.710938 155.871094 42.683594 156.0625 42.652344 C 155.773438 43.035156 155.480469 43.414062 155.167969 43.792969 C 154.917969 44.085938 154.625 44.375 154.378906 44.699219 C 154.113281 44.863281 153.84375 45.023438 153.585938 45.175781 C 153.101562 45.476562 152.628906 45.769531 152.136719 46.054688 C 152.257812 45.867188 152.390625 45.671875 152.511719 45.484375 C 153.082031 44.550781 153.753906 43.722656 154.453125 42.882812 C 154.523438 42.789062 154.386719 42.664062 154.308594 42.746094 C 153.628906 43.386719 152.996094 44.019531 152.472656 44.789062 C 152.03125 45.453125 151.625 46.070312 151.109375 46.648438 C 150.886719 46.773438 150.664062 46.902344 150.449219 47.039062 C 150.988281 45.53125 152.117188 44.367188 152.730469 42.878906 Z M 158.015625 43.253906 C 157.777344 43.320312 157.542969 43.382812 157.300781 43.46875 C 157.574219 43.246094 157.824219 42.992188 158.03125 42.734375 C 158.023438 42.902344 158.015625 43.074219 158.015625 43.253906 Z M 157.742188 44.328125 C 157.382812 44.941406 156.769531 45.328125 156.203125 45.769531 C 156.1875 45.707031 156.132812 45.660156 156.050781 45.691406 C 155.164062 46.078125 154.347656 46.121094 153.429688 46.285156 C 153.140625 46.335938 152.871094 46.40625 152.59375 46.464844 C 152.960938 46.246094 153.316406 46.011719 153.679688 45.789062 C 154.296875 45.675781 154.90625 45.511719 155.507812 45.332031 C 156.253906 45.113281 157.035156 44.933594 157.621094 44.425781 C 157.730469 44.335938 157.605469 44.183594 157.488281 44.261719 C 156.648438 44.792969 155.554688 45.058594 154.5 45.277344 C 154.519531 45.257812 154.542969 45.238281 154.574219 45.234375 C 155.125 44.882812 155.792969 44.523438 156.441406 44.089844 C 156.585938 44.042969 156.734375 44 156.878906 43.957031 C 157.25 43.855469 157.617188 43.722656 157.980469 43.589844 C 157.953125 43.828125 157.886719 44.082031 157.742188 44.328125 Z M 154.109375 46.769531 C 153.25 46.917969 152.316406 47.019531 151.394531 47.179688 C 151.492188 47.121094 151.597656 47.070312 151.707031 47.003906 C 152.308594 47.007812 152.890625 46.71875 153.503906 46.605469 C 154.40625 46.4375 155.082031 46.402344 155.851562 46.03125 C 155.675781 46.195312 155.496094 46.355469 155.355469 46.542969 C 154.9375 46.625 154.507812 46.699219 154.109375 46.769531 Z M 157.820312 41.980469 C 157.285156 42.773438 156.464844 43.398438 155.613281 43.960938 C 155.601562 43.96875 155.601562 43.96875 155.589844 43.976562 C 155.535156 44.023438 155.484375 44.046875 155.421875 44.078125 C 155.761719 43.605469 156.066406 43.085938 156.335938 42.632812 C 156.347656 42.625 156.339844 42.613281 156.351562 42.605469 C 156.867188 42.480469 157.371094 42.253906 157.820312 41.980469 Z M 148.027344 51.566406 C 149.542969 52.027344 151.265625 52.707031 152.890625 52.699219 C 152.535156 52.839844 152.191406 52.976562 151.832031 53.117188 C 151.828125 53.085938 151.800781 53.054688 151.761719 53.050781 C 149.882812 52.96875 148.105469 52.585938 146.324219 52.015625 C 146.863281 51.851562 147.402344 51.6875 147.941406 51.527344 C 147.976562 51.550781 148.007812 51.5625 148.027344 51.566406 Z M 143.789062 52.71875 C 144.457031 53.519531 146.03125 53.628906 146.988281 53.761719 C 147.847656 53.882812 148.695312 53.925781 149.5625 53.898438 C 148.601562 54.144531 147.644531 54.285156 146.605469 54.324219 C 146.148438 54.292969 145.691406 54.246094 145.257812 54.199219 C 144.015625 54.074219 143.007812 53.726562 141.953125 53.113281 C 142.566406 52.996094 143.183594 52.863281 143.789062 52.71875 Z M 145.988281 52.230469 C 147.734375 52.980469 149.648438 53.285156 151.539062 53.246094 C 151.496094 53.261719 151.457031 53.277344 151.414062 53.292969 C 151.164062 53.386719 150.910156 53.480469 150.671875 53.566406 C 149.625 53.613281 148.5625 53.578125 147.503906 53.4375 C 146.507812 53.300781 145.144531 53.164062 144.265625 52.585938 C 144.820312 52.445312 145.371094 52.292969 145.917969 52.140625 C 145.925781 52.171875 145.949219 52.207031 145.988281 52.230469 Z M 107.355469 55.1875 C 107.601562 55.242188 107.847656 55.28125 108.09375 55.316406 C 107.84375 56.734375 107.132812 58.03125 106.820312 59.445312 C 106.78125 58.023438 106.917969 56.625 107.355469 55.1875 Z M 91.882812 59.691406 C 90.570312 59.882812 89.261719 60.011719 87.949219 60.183594 C 87.050781 60.308594 86.097656 60.40625 85.203125 60.621094 C 87.296875 59.421875 89.476562 58.277344 91.726562 57.40625 C 94.230469 56.421875 96.722656 56.367188 99.371094 56.296875 C 97.535156 57.324219 95.566406 57.515625 93.359375 57.339844 C 93.21875 57.324219 93.195312 57.542969 93.335938 57.558594 C 94.921875 57.730469 96.761719 57.804688 98.347656 57.304688 C 97.710938 57.566406 97.039062 57.746094 96.355469 57.84375 C 94.609375 58.105469 92.808594 57.894531 91.070312 57.738281 C 90.929688 57.722656 90.894531 57.949219 91.046875 57.957031 C 92.9375 58.1875 94.8125 58.378906 96.71875 58.113281 C 97.207031 58.042969 97.75 57.929688 98.289062 57.769531 C 96.339844 58.832031 94.144531 59.371094 91.882812 59.691406 Z M 112.695312 28.570312 C 112.644531 28.664062 112.640625 28.773438 112.683594 28.847656 C 110.898438 32.230469 109.40625 36.203125 110.519531 39.984375 C 109.199219 39.542969 107.882812 39.480469 106.414062 39.726562 C 102.777344 40.320312 98.816406 41.792969 96.816406 45.089844 C 96.757812 45.191406 96.894531 45.296875 96.976562 45.195312 C 99.296875 42.183594 102.828125 40.785156 106.480469 40.214844 C 108.542969 39.894531 110.222656 40.222656 112.03125 41.210938 C 113.660156 42.105469 115.109375 43.203125 116.632812 44.261719 C 116.597656 44.308594 116.574219 44.34375 116.539062 44.390625 C 116.527344 44.398438 116.515625 44.410156 116.492188 44.425781 C 116.382812 44.445312 116.246094 44.480469 116.128906 44.539062 C 114.613281 43.734375 112.917969 43.160156 111.269531 42.714844 C 109.472656 42.238281 107.34375 41.621094 105.507812 42.085938 C 105.402344 42.117188 105.425781 42.277344 105.539062 42.261719 C 107.453125 41.804688 109.820312 42.558594 111.65625 43.125 C 113.074219 43.578125 114.394531 44.183594 115.722656 44.796875 C 115.625 44.875 115.542969 44.957031 115.46875 45.019531 C 115.230469 45.265625 115.058594 45.546875 114.964844 45.859375 C 112.742188 44.71875 110.308594 44.015625 107.824219 43.699219 C 107.675781 43.671875 107.660156 43.902344 107.800781 43.917969 C 110.269531 44.371094 112.597656 45.195312 114.851562 46.277344 C 114.496094 46.492188 114.117188 46.832031 113.886719 47.21875 C 113.367188 46.75 112.664062 46.554688 112.015625 46.335938 C 111.242188 46.070312 110.46875 45.789062 109.726562 45.429688 C 109.609375 45.375 109.519531 45.554688 109.625 45.617188 C 110.914062 46.386719 112.53125 46.589844 113.726562 47.492188 C 113.734375 47.503906 113.746094 47.492188 113.757812 47.503906 C 113.722656 47.621094 113.691406 47.738281 113.691406 47.847656 C 109.242188 46.832031 104.648438 46.257812 100.097656 45.941406 C 99.9375 45.925781 99.902344 46.171875 100.070312 46.199219 C 104.675781 46.671875 109.21875 47.449219 113.769531 48.308594 C 113.792969 48.363281 113.820312 48.414062 113.863281 48.46875 C 113.898438 48.511719 113.957031 48.519531 114.003906 48.484375 C 114.011719 48.496094 114.019531 48.507812 114.019531 48.527344 C 113.882812 48.492188 113.699219 48.601562 113.71875 48.785156 C 113.765625 49.089844 113.65625 49.378906 113.722656 49.6875 C 113.726562 49.738281 113.742188 49.800781 113.765625 49.851562 C 113.226562 49.90625 112.691406 49.960938 112.148438 49.960938 C 111.113281 49.980469 110.078125 49.910156 109.054688 49.789062 C 106.90625 49.53125 104.832031 48.957031 102.792969 48.207031 C 102.640625 48.152344 102.566406 48.375 102.710938 48.4375 C 104.664062 49.308594 106.753906 49.855469 108.867188 50.140625 C 110.472656 50.355469 112.308594 50.539062 114.003906 50.351562 C 114.011719 50.363281 114.019531 50.371094 114.019531 50.371094 C 114.125 50.523438 114.25 50.660156 114.410156 50.765625 C 111.605469 51.46875 108.5 52.378906 105.648438 51.8125 C 105.523438 51.789062 105.46875 52.015625 105.59375 52.039062 C 108.582031 52.800781 111.769531 51.898438 114.714844 51.191406 C 114.6875 51.46875 114.734375 51.753906 114.824219 51.953125 C 114.890625 52.101562 114.972656 52.25 115.101562 52.363281 C 113.488281 53.085938 111.949219 53.984375 110.230469 54.460938 C 108.390625 54.96875 106.636719 54.476562 105.03125 53.542969 C 103.53125 52.671875 102.164062 51.582031 100.769531 50.546875 C 99.234375 49.410156 96.257812 47.988281 96.796875 45.648438 C 96.820312 45.539062 96.644531 45.5 96.613281 45.597656 C 96.003906 47.449219 97.640625 48.757812 98.9375 49.761719 C 100.746094 51.238281 102.613281 52.8125 104.628906 54.03125 C 104.78125 54.128906 104.933594 54.207031 105.09375 54.292969 C 103.484375 54.5 101.886719 55.082031 100.28125 55.183594 C 100.257812 55.128906 100.203125 55.082031 100.136719 55.046875 C 97.621094 53.8125 95.75 51.605469 93.210938 50.460938 C 90.847656 49.394531 88.539062 49.863281 86.308594 51.046875 C 86.179688 51.113281 86.269531 51.3125 86.394531 51.246094 C 87.625 50.636719 88.957031 50.105469 90.347656 50.125 C 91.703125 50.140625 92.957031 50.707031 94.085938 51.40625 C 95.738281 52.449219 97.128906 53.882812 98.761719 54.957031 C 98.066406 54.683594 97.425781 54.292969 96.816406 53.828125 C 95.46875 52.832031 94.179688 51.730469 92.492188 51.367188 C 92.367188 51.34375 92.3125 51.550781 92.4375 51.59375 C 94.582031 52.113281 95.894531 53.988281 97.746094 55.050781 C 98.191406 55.308594 98.691406 55.523438 99.214844 55.679688 L 99.195312 55.679688 C 97.808594 55.621094 96.554688 54.875 95.378906 54.207031 C 93.140625 52.914062 90.867188 52.136719 88.25 52.308594 C 88.128906 52.316406 88.15625 52.507812 88.277344 52.503906 C 89.953125 52.421875 91.628906 52.699219 93.152344 53.375 C 94.398438 53.929688 95.480469 54.757812 96.699219 55.390625 C 97.105469 55.605469 97.511719 55.75 97.929688 55.863281 C 96.394531 55.890625 94.855469 56.027344 93.367188 56.410156 C 92.695312 56.425781 92.003906 56.3125 91.347656 56.242188 C 90.417969 56.144531 89.476562 56.011719 88.597656 55.707031 C 87.195312 55.226562 84.476562 53.539062 85.617188 51.675781 C 85.742188 51.46875 85.460938 51.257812 85.3125 51.453125 C 84.191406 52.988281 85.941406 54.730469 87.210938 55.449219 C 88.167969 55.980469 89.230469 56.265625 90.304688 56.429688 C 91.007812 56.535156 91.757812 56.636719 92.5 56.65625 C 92.300781 56.726562 92.101562 56.792969 91.894531 56.871094 C 89.277344 57.875 86.804688 59.328125 84.4375 60.820312 C 84.425781 60.828125 84.40625 60.847656 84.402344 60.867188 C 84.332031 60.886719 84.277344 60.914062 84.203125 60.9375 C 84.027344 61.007812 84.105469 61.285156 84.300781 61.257812 C 85.710938 61.097656 87.128906 60.714844 88.53125 60.527344 C 89.957031 60.335938 91.390625 60.179688 92.800781 59.929688 C 95.234375 59.488281 97.691406 58.757812 99.664062 57.222656 C 100.214844 56.921875 100.6875 56.539062 100.992188 56.039062 C 102.171875 55.90625 103.339844 55.578125 104.480469 55.21875 C 104.523438 55.203125 104.558594 55.179688 104.582031 55.140625 C 105 55.074219 105.410156 54.980469 105.824219 54.863281 C 105.917969 54.84375 105.984375 54.789062 106.027344 54.734375 C 106.183594 54.789062 106.335938 54.867188 106.492188 54.925781 C 104.671875 55.59375 102.796875 55.78125 100.957031 56.359375 C 100.84375 56.398438 100.90625 56.582031 101.015625 56.566406 C 102.90625 56.144531 105.15625 56.214844 106.851562 55.195312 L 106.863281 55.183594 C 106.214844 57.484375 106.066406 60.085938 106.867188 62.359375 C 107.074219 63.355469 107.441406 64.308594 107.886719 65.199219 C 107.953125 65.324219 108.15625 65.234375 108.097656 65.097656 C 107.265625 63.414062 106.789062 61.519531 107.246094 59.660156 C 107.605469 58.171875 108.410156 56.855469 108.691406 55.359375 C 108.992188 55.371094 109.292969 55.34375 109.601562 55.296875 C 110.632812 55.136719 111.609375 54.730469 112.566406 54.320312 C 113.617188 53.871094 114.679688 53.414062 115.664062 52.816406 C 115.664062 52.835938 115.679688 52.859375 115.679688 52.878906 C 115.050781 53.292969 114.492188 53.765625 113.960938 54.300781 C 113.851562 54.40625 113.988281 54.601562 114.121094 54.496094 C 114.703125 54.046875 115.304688 53.652344 115.910156 53.253906 C 115.972656 53.332031 116.054688 53.390625 116.136719 53.46875 C 114.574219 54.65625 113.273438 56.210938 112.214844 57.863281 C 112.144531 57.976562 112.300781 58.085938 112.382812 57.984375 C 113.519531 56.558594 114.8125 55.355469 116.179688 54.195312 C 115.210938 55.285156 114.421875 56.667969 113.644531 57.835938 C 112.660156 59.316406 111.75 60.816406 110.910156 62.378906 C 110.832031 62.53125 111.078125 62.660156 111.164062 62.519531 C 112.097656 61.042969 113.039062 59.558594 114.042969 58.128906 C 114.53125 57.429688 115.023438 56.761719 115.539062 56.074219 C 116.074219 55.367188 116.726562 54.714844 117.171875 53.941406 C 117.316406 53.964844 117.476562 53.984375 117.617188 53.976562 C 117.257812 57.53125 115.578125 60.371094 114.007812 63.523438 C 113.917969 63.707031 114.203125 63.855469 114.320312 63.6875 C 116.289062 60.847656 118.210938 57.34375 118.378906 53.820312 C 118.449219 53.796875 118.523438 53.753906 118.589844 53.722656 C 118.582031 53.78125 118.585938 53.851562 118.628906 53.925781 C 119.167969 54.976562 119.273438 56.121094 119.566406 57.246094 C 119.8125 58.207031 120.25 59.085938 120.859375 59.882812 C 121.207031 60.363281 121.632812 60.800781 122.082031 61.199219 C 122.0625 61.214844 122.035156 61.253906 122.023438 61.28125 C 120.660156 63.796875 118.980469 65.984375 116.632812 67.660156 C 115.429688 68.523438 113.96875 69.5 112.425781 69.023438 C 111.039062 68.585938 109.730469 67.480469 108.769531 66.425781 C 108.707031 66.347656 108.585938 66.445312 108.648438 66.523438 C 109.628906 67.671875 110.839844 68.835938 112.296875 69.363281 C 113.574219 69.820312 114.765625 69.363281 115.878906 68.722656 C 118.710938 67.089844 121.175781 64.59375 122.605469 61.644531 C 123.609375 62.414062 124.757812 63.011719 125.945312 63.429688 C 127.941406 64.125 130.070312 64.363281 132.164062 64.503906 C 133.140625 64.570312 134.25 64.6875 135.199219 64.449219 C 134.890625 65.351562 134.710938 66.273438 134.710938 67.238281 C 134.710938 67.707031 134.769531 68.1875 134.839844 68.65625 C 134.964844 69.53125 134.882812 70.105469 134.496094 70.90625 C 134.125 71.679688 134.339844 72.464844 134.183594 73.28125 C 133.929688 74.515625 133.1875 75.550781 132.589844 76.632812 C 132.589844 76.632812 132.589844 76.632812 132.578125 76.640625 C 132.566406 76.648438 132.558594 76.65625 132.546875 76.667969 C 132.296875 76.851562 132.597656 77.203125 132.847656 77.039062 C 133.085938 76.886719 133.34375 76.710938 133.605469 76.519531 C 133.664062 76.527344 133.730469 76.492188 133.765625 76.425781 C 133.777344 76.417969 133.777344 76.398438 133.789062 76.386719 C 134.847656 75.589844 135.933594 74.550781 136.179688 73.355469 C 136.203125 73.265625 136.066406 73.230469 136.023438 73.316406 C 135.6875 74.132812 135.003906 74.8125 134.253906 75.414062 C 135.855469 71.984375 137.261719 68.402344 138.429688 64.816406 C 138.988281 63.078125 139.320312 61.289062 139.644531 59.488281 C 139.863281 58.257812 140.152344 56.972656 140.308594 55.707031 C 140.351562 56.140625 140.425781 56.570312 140.46875 57.027344 C 140.570312 58.121094 140.535156 59.203125 140.417969 60.292969 C 140.191406 62.324219 139.671875 64.265625 139.199219 66.242188 C 139.164062 66.378906 139.390625 66.433594 139.445312 66.296875 C 140.027344 64.414062 140.558594 62.445312 140.820312 60.496094 C 140.84375 60.367188 140.859375 60.230469 140.863281 60.097656 C 140.890625 60.964844 140.847656 61.832031 140.742188 62.714844 C 140.726562 62.855469 140.945312 62.878906 140.960938 62.738281 C 141.292969 60.746094 141.476562 58.589844 141.152344 56.546875 C 142.359375 58.113281 143.574219 59.6875 144.78125 61.25 C 145 61.546875 146.855469 64.453125 147.234375 62.898438 C 147.253906 62.789062 147.246094 62.691406 147.144531 62.609375 C 147.097656 62.574219 147.0625 62.550781 147.015625 62.515625 C 146.855469 62.386719 146.636719 62.582031 146.707031 62.761719 C 146.496094 62.660156 146.34375 62.511719 146.214844 62.308594 C 146.132812 62.210938 146.054688 62.109375 145.972656 62.011719 C 145.734375 61.714844 145.476562 61.414062 145.238281 61.121094 C 144.703125 60.480469 144.179688 59.832031 143.648438 59.195312 C 142.777344 58.136719 141.90625 57.082031 141.039062 56.023438 C 141.003906 55.851562 140.964844 55.683594 140.921875 55.519531 C 141.011719 55.589844 141.105469 55.660156 141.199219 55.730469 C 142.902344 57.820312 145.554688 59.378906 147.984375 60.191406 C 148.09375 60.230469 148.148438 60.078125 148.042969 60.035156 C 146.617188 59.371094 145.230469 58.550781 143.980469 57.585938 C 143.777344 57.421875 143.566406 57.25 143.371094 57.078125 C 144.066406 57.441406 144.777344 57.738281 145.433594 57.96875 C 147.746094 58.789062 149.722656 60.636719 151.527344 62.265625 C 151.609375 62.34375 151.742188 62.199219 151.664062 62.117188 C 150.851562 61.339844 150.042969 60.582031 149.183594 59.875 C 148.34375 59.175781 147.457031 58.367188 146.464844 57.898438 C 145.394531 57.402344 144.339844 57.039062 143.308594 56.457031 C 142.917969 56.246094 142.542969 56.003906 142.179688 55.777344 C 142.796875 56.09375 143.429688 56.339844 144.105469 56.523438 C 146.21875 57.101562 147.925781 58.136719 149.667969 59.46875 C 152.898438 61.917969 155.660156 64.984375 158.332031 68.03125 C 157.304688 67.628906 156.117188 67.460938 155.089844 67.292969 C 154.609375 67.210938 154.109375 67.285156 153.648438 67.1875 C 153.160156 67.074219 152.757812 66.78125 152.371094 66.476562 C 151.582031 65.863281 150.867188 65.152344 150.023438 64.601562 C 149.898438 64.519531 149.734375 64.671875 149.839844 64.804688 C 150.40625 65.503906 151.132812 66.117188 151.800781 66.71875 C 152.304688 67.164062 152.855469 67.644531 153.542969 67.796875 C 153.972656 67.882812 154.421875 67.8125 154.859375 67.878906 C 155.324219 67.9375 155.769531 68.066406 156.222656 68.15625 C 157.3125 68.382812 158.429688 68.53125 159.316406 69.269531 C 159.597656 69.511719 159.929688 69.042969 159.644531 68.804688 C 159.582031 68.746094 159.515625 68.707031 159.449219 68.652344 C 159.242188 68.078125 158.949219 67.535156 158.726562 66.96875 C 158.457031 66.296875 158.28125 65.605469 158.035156 64.917969 C 157.632812 63.792969 157.046875 62.523438 155.835938 62.125 C 155.871094 62.078125 155.867188 62.007812 155.824219 61.953125 C 155.332031 61.386719 155.382812 60.550781 154.835938 60.011719 C 154.417969 59.605469 153.851562 59.394531 153.386719 59.042969 C 153.109375 58.632812 152.933594 58.210938 152.386719 58.054688 C 152.105469 57.972656 151.820312 57.929688 151.550781 57.824219 C 151.222656 57.6875 150.953125 57.488281 150.628906 57.351562 C 150.433594 57.273438 150.269531 57.515625 150.394531 57.667969 C 150.730469 58.066406 151.28125 58.273438 151.769531 58.40625 C 152.089844 58.492188 152.386719 58.542969 152.671875 58.765625 C 152.738281 58.824219 152.792969 58.867188 152.847656 58.933594 C 152.796875 59.007812 152.777344 59.117188 152.847656 59.207031 C 153.304688 59.816406 154.113281 59.921875 154.59375 60.496094 C 155.019531 61.023438 155.070312 61.691406 155.601562 62.167969 C 155.609375 62.179688 155.609375 62.179688 155.628906 62.183594 C 155.59375 62.226562 155.585938 62.308594 155.628906 62.363281 C 156.667969 63.425781 157.285156 64.507812 157.757812 65.921875 C 157.976562 66.578125 158.230469 67.226562 158.53125 67.851562 C 156.039062 64.894531 153.515625 61.964844 150.496094 59.503906 C 149.050781 58.316406 147.425781 57.070312 145.640625 56.425781 C 144.769531 56.113281 143.871094 55.96875 143.03125 55.59375 C 141.996094 55.144531 141.132812 54.480469 140.324219 53.699219 C 140.316406 53.667969 140.328125 53.640625 140.324219 53.609375 C 140.304688 53.386719 140.113281 53.328125 139.945312 53.390625 C 139.738281 53.335938 139.515625 53.554688 139.683594 53.78125 C 139.691406 53.792969 139.699219 53.804688 139.707031 53.816406 L 139.707031 53.835938 C 138.421875 52.605469 136.898438 51.859375 135.292969 51.195312 C 135.144531 51.007812 134.972656 50.820312 134.808594 50.664062 C 134.464844 50.324219 134.085938 50.011719 133.695312 49.730469 C 133.792969 49.671875 133.898438 49.601562 133.988281 49.53125 C 133.988281 49.53125 133.988281 49.53125 133.996094 49.542969 C 135.953125 50.664062 138 51.585938 139.742188 53.027344 C 140 53.234375 140.296875 52.816406 140.039062 52.605469 C 140 52.582031 139.972656 52.550781 139.9375 52.523438 C 140.214844 52.082031 140.503906 51.652344 140.816406 51.253906 C 140.703125 51.65625 140.605469 52.074219 140.566406 52.472656 C 140.558594 52.53125 140.582031 52.585938 140.597656 52.625 C 140.492188 52.675781 140.386719 52.722656 140.28125 52.773438 C 140.1875 52.8125 140.1875 52.992188 140.316406 52.996094 C 141.574219 52.980469 142.714844 52.171875 143.695312 51.453125 C 144.371094 50.941406 145.015625 50.261719 145.820312 49.976562 C 146.445312 49.761719 147.039062 49.804688 147.558594 49.367188 C 147.589844 49.382812 147.617188 49.375 147.644531 49.335938 C 147.855469 49.128906 148.074219 48.953125 148.320312 48.808594 C 148.773438 48.625 149.226562 48.421875 149.667969 48.210938 C 150.167969 48.0625 150.679688 47.957031 151.171875 47.867188 C 152.359375 47.65625 153.542969 47.460938 154.738281 47.257812 C 154.863281 47.230469 154.992188 47.214844 155.125 47.199219 C 155.171875 47.234375 155.25 47.261719 155.304688 47.21875 C 155.328125 47.199219 155.347656 47.183594 155.371094 47.164062 C 157.320312 46.84375 159.242188 46.617188 161.238281 46.710938 C 161.222656 46.757812 161.1875 46.804688 161.171875 46.851562 C 161.152344 46.851562 161.140625 46.859375 161.121094 46.859375 C 154.359375 49.035156 147.652344 51.578125 140.734375 53.222656 C 140.601562 53.257812 140.628906 53.453125 140.761719 53.4375 C 141.007812 53.402344 141.261719 53.359375 141.496094 53.316406 C 142.011719 53.859375 142.667969 54.183594 143.378906 54.390625 C 143.300781 54.378906 143.210938 54.382812 143.128906 54.371094 C 142.476562 54.28125 141.820312 54.140625 141.164062 53.910156 C 140.988281 53.851562 140.914062 54.09375 141.066406 54.171875 C 141.074219 54.183594 141.082031 54.195312 141.113281 54.207031 C 141.140625 54.21875 141.160156 54.222656 141.1875 54.234375 C 142.484375 54.804688 143.820312 55.160156 145.230469 55.289062 C 146.023438 55.355469 146.855469 55.394531 147.621094 55.625 C 148.515625 55.902344 149.050781 56.410156 149.640625 57.097656 C 149.84375 57.347656 150.222656 57.097656 150.113281 56.804688 C 149.722656 55.691406 148.515625 55.140625 147.410156 54.890625 C 148.234375 54.859375 149.066406 54.765625 149.886719 54.523438 C 151.617188 54.015625 153.292969 53.261719 154.957031 52.609375 C 155.460938 52.421875 156.566406 52.199219 156.929688 51.796875 C 157.019531 51.707031 157.054688 51.589844 157.113281 51.484375 C 157.425781 50.925781 157.246094 50.816406 157.914062 50.769531 C 158.15625 50.753906 158.152344 50.34375 157.898438 50.34375 C 157.507812 50.351562 157.011719 50.371094 156.738281 50.683594 C 156.535156 50.921875 156.648438 51.175781 156.492188 51.410156 C 156.335938 51.644531 155.359375 51.847656 155.085938 51.960938 C 154.742188 52.09375 154.386719 52.234375 154.039062 52.371094 C 153.863281 52.441406 153.695312 52.503906 153.515625 52.574219 C 151.808594 52.703125 150.140625 51.960938 148.527344 51.46875 C 149.253906 51.246094 149.992188 51.015625 150.71875 50.789062 C 154.078125 49.765625 157.433594 48.710938 160.777344 47.644531 C 160.511719 48.058594 160.183594 48.414062 159.925781 48.835938 C 159.660156 49.269531 159.449219 49.636719 159.074219 49.980469 C 158.804688 50.210938 158.644531 50.304688 158.492188 50.609375 C 158.417969 50.742188 158.628906 50.84375 158.71875 50.734375 C 158.992188 50.371094 159.503906 50.265625 159.816406 49.957031 C 160.164062 49.605469 160.3125 49.089844 160.59375 48.699219 C 160.921875 48.25 161.285156 47.847656 161.519531 47.371094 C 161.542969 47.335938 161.566406 47.296875 161.570312 47.257812 C 161.679688 47.007812 161.757812 46.746094 161.777344 46.457031 C 161.792969 46.316406 161.652344 46.230469 161.535156 46.269531 C 159.71875 46.015625 157.847656 46.234375 156.019531 46.550781 C 156.308594 46.28125 156.578125 46.011719 156.894531 45.773438 C 157.289062 45.472656 157.699219 45.195312 157.984375 44.785156 C 158.183594 44.496094 158.328125 44.179688 158.355469 43.832031 C 158.414062 43.1875 158.289062 42.761719 158.449219 42.214844 C 158.523438 42.085938 158.578125 41.949219 158.613281 41.8125 C 158.625 41.785156 158.636719 41.753906 158.652344 41.726562 C 158.664062 41.699219 158.65625 41.667969 158.652344 41.636719 C 158.65625 41.597656 158.667969 41.570312 158.679688 41.539062 C 158.710938 41.351562 158.542969 41.253906 158.398438 41.277344 C 158.398438 41.277344 158.386719 41.289062 158.378906 41.277344 L 158.367188 41.285156 C 158.355469 41.292969 158.335938 41.292969 158.324219 41.300781 C 157.789062 41.535156 157.320312 41.875 156.785156 42.109375 C 156.027344 42.429688 155.367188 42.417969 154.570312 42.375 C 153.5625 42.316406 152.652344 42.648438 151.679688 42.835938 C 151.535156 42.863281 151.546875 43.054688 151.683594 43.085938 C 151.96875 43.128906 152.230469 43.117188 152.5 43.066406 C 151.703125 44.574219 150.453125 45.675781 149.96875 47.371094 C 149.964844 47.410156 149.960938 47.449219 149.96875 47.480469 C 149.785156 47.589844 149.613281 47.691406 149.433594 47.804688 C 149.820312 46.601562 150.242188 45.410156 150.753906 44.273438 C 150.804688 44.15625 150.632812 44.097656 150.578125 44.214844 C 149.914062 45.476562 149.304688 46.746094 148.894531 48.128906 C 148.429688 48.378906 148.003906 48.683594 147.621094 49.082031 C 147.550781 48.976562 147.386719 48.910156 147.246094 49.023438 C 146.996094 49.207031 146.695312 49.285156 146.398438 49.34375 C 146.640625 48.949219 146.765625 48.449219 146.929688 48.027344 C 147.226562 47.246094 147.5 46.460938 147.800781 45.691406 C 147.816406 45.664062 147.808594 45.632812 147.800781 45.601562 C 148.386719 45.023438 149 44.636719 149.664062 44.316406 C 149.019531 45.5625 148.355469 46.894531 148.046875 48.265625 C 147.996094 48.472656 148.3125 48.527344 148.402344 48.34375 C 149.027344 47.007812 149.453125 45.539062 150 44.171875 C 150.273438 44.0625 150.546875 43.949219 150.828125 43.847656 C 151.058594 43.773438 150.933594 43.4375 150.71875 43.464844 C 149.644531 43.570312 148.605469 44.171875 147.808594 44.890625 C 147.320312 45.339844 146.921875 45.859375 146.386719 46.253906 C 146.125 46.445312 145.835938 46.625 145.539062 46.773438 C 145.527344 46.78125 145.507812 46.78125 145.496094 46.789062 C 145.144531 46.984375 144.785156 47.164062 144.441406 47.371094 C 142.425781 48.578125 140.773438 50.328125 139.710938 52.402344 C 138.027344 51.148438 136.070312 50.316406 134.152344 49.488281 C 136.234375 48.027344 137.902344 45.957031 138.75 43.550781 C 139.34375 41.855469 140.359375 38.261719 138.203125 37.25 C 138.085938 37.195312 138.007812 37.371094 138.101562 37.441406 C 140.238281 38.832031 138.695312 42.578125 137.785156 44.328125 C 136.722656 46.382812 135.152344 48.101562 133.195312 49.335938 C 133.164062 49.363281 133.140625 49.378906 133.109375 49.40625 C 132.421875 48.980469 131.675781 48.640625 130.898438 48.378906 C 131.941406 48.097656 132.945312 47.5625 133.78125 46.960938 C 133.910156 46.875 133.757812 46.6875 133.628906 46.773438 C 132.507812 47.515625 131.394531 47.867188 130.152344 48.148438 C 129.042969 47.828125 127.886719 47.652344 126.746094 47.632812 C 128.660156 47.265625 130.5 46.578125 132.203125 45.65625 C 132.332031 45.589844 132.246094 45.371094 132.105469 45.445312 C 129.417969 46.765625 126.597656 47.335938 123.621094 47.46875 C 123.601562 47.464844 123.59375 47.476562 123.570312 47.472656 C 123.558594 47.410156 123.535156 47.359375 123.519531 47.296875 C 125.261719 47.070312 127.039062 46.46875 128.652344 45.859375 C 130.554688 45.140625 132.261719 44.179688 133.929688 43.050781 C 134.023438 42.992188 133.917969 42.863281 133.820312 42.921875 C 132.15625 43.957031 130.335938 44.824219 128.496094 45.53125 C 127.460938 45.933594 126.40625 46.199219 125.335938 46.445312 C 127.289062 45.632812 129.121094 44.554688 130.882812 43.390625 C 133.269531 41.808594 135.585938 40.140625 137.445312 37.953125 C 137.546875 37.832031 137.351562 37.699219 137.246094 37.820312 C 133.585938 41.953125 128.34375 44.964844 123.152344 46.726562 C 123.136719 46.664062 123.121094 46.621094 123.097656 46.570312 C 123.089844 46.558594 123.089844 46.539062 123.089844 46.539062 C 125.605469 44.710938 128.585938 43.554688 130.703125 41.210938 C 130.808594 41.09375 130.613281 40.921875 130.503906 41.03125 C 128.441406 43.058594 125.75 44.195312 123.363281 45.773438 C 123.742188 45.304688 124.191406 44.890625 124.597656 44.453125 C 125.277344 43.722656 125.945312 43 126.710938 42.351562 C 126.828125 42.253906 126.679688 42.066406 126.558594 42.164062 C 125.726562 42.816406 124.945312 43.554688 124.191406 44.308594 C 123.699219 44.796875 123.074219 45.28125 122.726562 45.90625 C 122.636719 45.796875 122.550781 45.6875 122.460938 45.578125 C 123.382812 44.472656 124.070312 43.101562 124.691406 41.804688 C 125.117188 40.914062 125.464844 40 125.667969 39.039062 C 127.53125 38.042969 129.386719 37.378906 131.441406 36.847656 C 133.546875 36.289062 135.367188 36.253906 137.375 37.210938 C 137.488281 37.265625 137.589844 37.074219 137.484375 37.011719 C 136.703125 36.515625 135.875 36.207031 135.015625 36.066406 C 132.433594 34.796875 128.121094 35.15625 125.878906 37.074219 C 125.828125 34.941406 124.890625 32.363281 122.796875 31.566406 C 122.507812 31.457031 122.316406 31.847656 122.546875 32.042969 C 123.53125 32.859375 124.324219 33.617188 124.785156 34.839844 C 125.214844 35.980469 125.300781 37.234375 125.132812 38.4375 C 124.804688 40.820312 123.730469 43.464844 122.289062 45.410156 C 122.050781 45.183594 121.789062 45.015625 121.558594 44.929688 C 120.613281 42.789062 121.273438 40.082031 121.832031 37.945312 C 121.867188 37.808594 121.65625 37.726562 121.621094 37.863281 C 121.046875 39.847656 120.214844 42.476562 120.910156 44.578125 C 120.519531 44.386719 120.066406 44.339844 119.609375 44.359375 C 119.636719 43.738281 119.625 43.117188 119.710938 42.503906 C 119.800781 41.941406 119.976562 41.398438 120.050781 40.816406 C 120.214844 39.46875 120.09375 38.058594 120.097656 36.714844 C 120.089844 36.59375 119.902344 36.566406 119.898438 36.695312 C 119.871094 38.097656 119.972656 39.570312 119.734375 40.960938 C 119.589844 41.859375 119.359375 42.675781 119.277344 43.539062 C 118.347656 38.996094 119.203125 33.851562 116.578125 29.855469 C 116.535156 29.78125 116.40625 29.867188 116.449219 29.945312 C 118.695312 33.898438 117.976562 38.355469 118.632812 42.628906 C 117.835938 40.515625 116.84375 38.453125 115.867188 36.414062 C 115.808594 36.296875 115.640625 36.378906 115.6875 36.484375 C 116.773438 39.089844 117.851562 41.683594 118.863281 44.308594 C 118.601562 44.121094 118.285156 43.996094 117.960938 43.953125 C 117.925781 43.886719 117.894531 43.824219 117.839844 43.757812 C 117.417969 43.121094 116.800781 42.601562 116.363281 41.976562 C 115.304688 40.4375 114.648438 38.699219 114.761719 36.816406 C 114.769531 36.71875 114.613281 36.699219 114.601562 36.800781 C 114.449219 38.117188 114.691406 39.40625 115.234375 40.621094 C 115.527344 41.273438 115.894531 41.882812 116.324219 42.460938 C 116.644531 42.90625 117.253906 43.414062 117.546875 43.957031 C 117.34375 43.976562 117.136719 44.035156 116.957031 44.125 C 115.425781 42.789062 113.589844 41.636719 111.785156 40.703125 C 111.453125 40.535156 111.136719 40.390625 110.808594 40.257812 C 110.527344 38.039062 110.550781 36.023438 111.234375 33.859375 C 111.820312 32.027344 112.714844 30.328125 113.515625 28.578125 C 114.667969 27.554688 116.144531 28.285156 117.492188 28.902344 C 118.851562 29.527344 120.519531 30.160156 121.671875 31.113281 C 121.78125 31.207031 121.910156 31.03125 121.8125 30.929688 C 120.34375 29.558594 118.238281 28.519531 116.390625 27.761719 C 115.050781 27.066406 113.480469 27.117188 112.695312 28.570312 " fill-opacity="1" fill-rule="nonzero"/></g></g></g></g></svg>