<svg xmlns="http://www.w3.org/2000/svg" xmlns:xlink="http://www.w3.org/1999/xlink" width="500" zoomAndPan="magnify" viewBox="0 0 375 374.999991" height="500" preserveAspectRatio="xMidYMid meet" version="1.0"><defs><g/><clipPath id="c95b2d8b0f"><rect x="0" width="291" y="0" height="92"/></clipPath><clipPath id="c68cb92744"><path d="M 19 175 L 146 175 L 146 277 L 19 277 Z M 19 175 " clip-rule="nonzero"/></clipPath><clipPath id="baaf1e5b63"><path d="M 133.296875 163.480469 L 147.035156 266.820312 L 28.082031 282.632812 L 14.34375 179.292969 Z M 133.296875 163.480469 " clip-rule="nonzero"/></clipPath><clipPath id="1127267bfc"><path d="M 133.296875 163.480469 L 147.035156 266.820312 L 28.082031 282.632812 L 14.34375 179.292969 Z M 133.296875 163.480469 " clip-rule="nonzero"/></clipPath><clipPath id="7eb752d768"><path d="M 133.296875 163.484375 L 147.0625 267.007812 L 28.226562 282.804688 L 14.464844 179.28125 Z M 133.296875 163.484375 " clip-rule="nonzero"/></clipPath></defs><g transform="matrix(1, 0, 0, 1, 52, 120)"><g clip-path="url(#c95b2d8b0f)"><g fill="#55001d" fill-opacity="1"><g transform="translate(1.077927, 68.267995)"><g><path d="M 49.65625 1.09375 C 45.570312 1.09375 42.003906 0.179688 38.953125 -1.640625 C 35.898438 -3.472656 33.488281 -5.957031 31.71875 -9.09375 C 29.957031 -12.238281 28.957031 -15.726562 28.71875 -19.5625 C 28.59375 -21.945312 28.617188 -23.914062 28.796875 -25.46875 C 28.984375 -27.019531 29.226562 -28.453125 29.53125 -29.765625 C 29.832031 -31.078125 30.046875 -32.523438 30.171875 -34.109375 L 29.4375 -34.65625 C 28.894531 -34.226562 28.285156 -34.015625 27.609375 -34.015625 C 26.390625 -34.015625 25.445312 -34.347656 24.78125 -35.015625 C 24.113281 -35.691406 23.78125 -36.546875 23.78125 -37.578125 C 23.78125 -38.554688 24.113281 -39.363281 24.78125 -40 C 25.445312 -40.644531 26.359375 -40.96875 27.515625 -40.96875 C 28.429688 -40.96875 29.375 -40.613281 30.34375 -39.90625 C 31.320312 -39.207031 31.875 -38.160156 32 -36.765625 C 34.132812 -36.148438 36.328125 -36.207031 38.578125 -36.9375 C 40.835938 -37.664062 42.742188 -38.957031 44.296875 -40.8125 C 45.859375 -42.675781 46.640625 -44.984375 46.640625 -47.734375 C 46.640625 -50.347656 46.101562 -52.738281 45.03125 -54.90625 C 43.96875 -57.070312 42.242188 -58.8125 39.859375 -60.125 C 37.484375 -61.4375 34.316406 -62.09375 30.359375 -62.09375 L 16.640625 -62.09375 L 16.640625 -23.40625 C 16.640625 -17.375 16.988281 -12.46875 17.6875 -8.6875 C 18.394531 -4.90625 19.144531 -2.375 19.9375 -1.09375 L 19.9375 0 L 2.828125 0 L 2.828125 -1.09375 C 4.597656 -3.84375 5.484375 -11.28125 5.484375 -23.40625 L 5.484375 -40.5 C 5.484375 -46.65625 5.253906 -51.609375 4.796875 -55.359375 C 4.335938 -59.109375 3.679688 -61.625 2.828125 -62.90625 L 2.828125 -64 L 34.5625 -64 C 42.125 -64 47.625 -62.488281 51.0625 -59.46875 C 54.507812 -56.457031 56.234375 -52.695312 56.234375 -48.1875 C 56.234375 -45.195312 55.5 -42.585938 54.03125 -40.359375 C 52.570312 -38.140625 50.664062 -36.390625 48.3125 -35.109375 C 45.96875 -33.828125 43.46875 -33.09375 40.8125 -32.90625 C 38.164062 -32.726562 35.6875 -33.160156 33.375 -34.203125 L 32.828125 -33.65625 C 33.554688 -30.300781 34.421875 -26.976562 35.421875 -23.6875 C 36.429688 -20.394531 37.695312 -17.4375 39.21875 -14.8125 C 40.75 -12.1875 42.609375 -10.082031 44.796875 -8.5 C 46.992188 -6.914062 49.648438 -6.125 52.765625 -6.125 C 55.015625 -6.125 57.050781 -6.640625 58.875 -7.671875 C 60.707031 -8.710938 62.171875 -10.128906 63.265625 -11.921875 C 64.367188 -13.722656 64.921875 -15.753906 64.921875 -18.015625 C 64.921875 -21.003906 64.097656 -23.519531 62.453125 -25.5625 C 60.804688 -27.601562 58.550781 -28.625 55.6875 -28.625 C 53.425781 -28.625 51.65625 -27.84375 50.375 -26.28125 C 49.101562 -24.726562 48.46875 -23.070312 48.46875 -21.3125 C 48.46875 -19.414062 49 -17.929688 50.0625 -16.859375 C 51.125 -15.796875 52.539062 -15.476562 54.3125 -15.90625 L 54.40625 -15 C 54.101562 -14.8125 53.691406 -14.671875 53.171875 -14.578125 C 52.648438 -14.492188 52.144531 -14.453125 51.65625 -14.453125 C 49.644531 -14.453125 47.816406 -15.257812 46.171875 -16.875 C 44.523438 -18.488281 43.703125 -20.515625 43.703125 -22.953125 C 43.703125 -25.628906 44.660156 -28.003906 46.578125 -30.078125 C 48.503906 -32.148438 51.050781 -33.1875 54.21875 -33.1875 C 56.71875 -33.1875 58.972656 -32.53125 60.984375 -31.21875 C 62.992188 -29.914062 64.59375 -28.070312 65.78125 -25.6875 C 66.976562 -23.3125 67.578125 -20.570312 67.578125 -17.46875 C 67.578125 -13.8125 66.765625 -10.59375 65.140625 -7.8125 C 63.523438 -5.039062 61.363281 -2.863281 58.65625 -1.28125 C 55.945312 0.300781 52.945312 1.09375 49.65625 1.09375 Z M 49.65625 1.09375 "/></g></g></g><g fill="#55001d" fill-opacity="1"><g transform="translate(74.50099, 68.267995)"><g><path d="M 35.109375 1.09375 C 28.398438 1.09375 22.59375 -0.367188 17.6875 -3.296875 C 12.78125 -6.222656 9 -10.179688 6.34375 -15.171875 C 3.695312 -20.171875 2.375 -25.78125 2.375 -32 C 2.375 -38.21875 3.695312 -43.828125 6.34375 -48.828125 C 9 -53.828125 12.78125 -57.789062 17.6875 -60.71875 C 22.59375 -63.644531 28.398438 -65.109375 35.109375 -65.109375 C 41.878906 -65.109375 47.71875 -63.644531 52.625 -60.71875 C 57.53125 -57.789062 61.289062 -53.828125 63.90625 -48.828125 C 66.53125 -43.828125 67.84375 -38.21875 67.84375 -32 C 67.84375 -25.78125 66.53125 -20.171875 63.90625 -15.171875 C 61.289062 -10.179688 57.53125 -6.222656 52.625 -3.296875 C 47.71875 -0.367188 41.878906 1.09375 35.109375 1.09375 Z M 35.109375 -1 C 39.617188 -1 43.441406 -2.320312 46.578125 -4.96875 C 49.722656 -7.625 52.117188 -11.285156 53.765625 -15.953125 C 55.410156 -20.617188 56.234375 -25.96875 56.234375 -32 C 56.234375 -38.09375 55.410156 -43.457031 53.765625 -48.09375 C 52.117188 -52.726562 49.722656 -56.367188 46.578125 -59.015625 C 43.441406 -61.671875 39.617188 -63 35.109375 -63 C 30.597656 -63 26.769531 -61.671875 23.625 -59.015625 C 20.488281 -56.367188 18.097656 -52.726562 16.453125 -48.09375 C 14.804688 -43.457031 13.984375 -38.09375 13.984375 -32 C 13.984375 -25.96875 14.804688 -20.617188 16.453125 -15.953125 C 18.097656 -11.285156 20.488281 -7.625 23.625 -4.96875 C 26.769531 -2.320312 30.597656 -1 35.109375 -1 Z M 35.109375 -1 "/></g></g></g><g fill="#55001d" fill-opacity="1"><g transform="translate(149.021286, 68.267995)"><g><path d="M 49.65625 1.09375 C 45.570312 1.09375 42.003906 0.179688 38.953125 -1.640625 C 35.898438 -3.472656 33.488281 -5.957031 31.71875 -9.09375 C 29.957031 -12.238281 28.957031 -15.726562 28.71875 -19.5625 C 28.59375 -21.945312 28.617188 -23.914062 28.796875 -25.46875 C 28.984375 -27.019531 29.226562 -28.453125 29.53125 -29.765625 C 29.832031 -31.078125 30.046875 -32.523438 30.171875 -34.109375 L 29.4375 -34.65625 C 28.894531 -34.226562 28.285156 -34.015625 27.609375 -34.015625 C 26.390625 -34.015625 25.445312 -34.347656 24.78125 -35.015625 C 24.113281 -35.691406 23.78125 -36.546875 23.78125 -37.578125 C 23.78125 -38.554688 24.113281 -39.363281 24.78125 -40 C 25.445312 -40.644531 26.359375 -40.96875 27.515625 -40.96875 C 28.429688 -40.96875 29.375 -40.613281 30.34375 -39.90625 C 31.320312 -39.207031 31.875 -38.160156 32 -36.765625 C 34.132812 -36.148438 36.328125 -36.207031 38.578125 -36.9375 C 40.835938 -37.664062 42.742188 -38.957031 44.296875 -40.8125 C 45.859375 -42.675781 46.640625 -44.984375 46.640625 -47.734375 C 46.640625 -50.347656 46.101562 -52.738281 45.03125 -54.90625 C 43.96875 -57.070312 42.242188 -58.8125 39.859375 -60.125 C 37.484375 -61.4375 34.316406 -62.09375 30.359375 -62.09375 L 16.640625 -62.09375 L 16.640625 -23.40625 C 16.640625 -17.375 16.988281 -12.46875 17.6875 -8.6875 C 18.394531 -4.90625 19.144531 -2.375 19.9375 -1.09375 L 19.9375 0 L 2.828125 0 L 2.828125 -1.09375 C 4.597656 -3.84375 5.484375 -11.28125 5.484375 -23.40625 L 5.484375 -40.5 C 5.484375 -46.65625 5.253906 -51.609375 4.796875 -55.359375 C 4.335938 -59.109375 3.679688 -61.625 2.828125 -62.90625 L 2.828125 -64 L 34.5625 -64 C 42.125 -64 47.625 -62.488281 51.0625 -59.46875 C 54.507812 -56.457031 56.234375 -52.695312 56.234375 -48.1875 C 56.234375 -45.195312 55.5 -42.585938 54.03125 -40.359375 C 52.570312 -38.140625 50.664062 -36.390625 48.3125 -35.109375 C 45.96875 -33.828125 43.46875 -33.09375 40.8125 -32.90625 C 38.164062 -32.726562 35.6875 -33.160156 33.375 -34.203125 L 32.828125 -33.65625 C 33.554688 -30.300781 34.421875 -26.976562 35.421875 -23.6875 C 36.429688 -20.394531 37.695312 -17.4375 39.21875 -14.8125 C 40.75 -12.1875 42.609375 -10.082031 44.796875 -8.5 C 46.992188 -6.914062 49.648438 -6.125 52.765625 -6.125 C 55.015625 -6.125 57.050781 -6.640625 58.875 -7.671875 C 60.707031 -8.710938 62.171875 -10.128906 63.265625 -11.921875 C 64.367188 -13.722656 64.921875 -15.753906 64.921875 -18.015625 C 64.921875 -21.003906 64.097656 -23.519531 62.453125 -25.5625 C 60.804688 -27.601562 58.550781 -28.625 55.6875 -28.625 C 53.425781 -28.625 51.65625 -27.84375 50.375 -26.28125 C 49.101562 -24.726562 48.46875 -23.070312 48.46875 -21.3125 C 48.46875 -19.414062 49 -17.929688 50.0625 -16.859375 C 51.125 -15.796875 52.539062 -15.476562 54.3125 -15.90625 L 54.40625 -15 C 54.101562 -14.8125 53.691406 -14.671875 53.171875 -14.578125 C 52.648438 -14.492188 52.144531 -14.453125 51.65625 -14.453125 C 49.644531 -14.453125 47.816406 -15.257812 46.171875 -16.875 C 44.523438 -18.488281 43.703125 -20.515625 43.703125 -22.953125 C 43.703125 -25.628906 44.660156 -28.003906 46.578125 -30.078125 C 48.503906 -32.148438 51.050781 -33.1875 54.21875 -33.1875 C 56.71875 -33.1875 58.972656 -32.53125 60.984375 -31.21875 C 62.992188 -29.914062 64.59375 -28.070312 65.78125 -25.6875 C 66.976562 -23.3125 67.578125 -20.570312 67.578125 -17.46875 C 67.578125 -13.8125 66.765625 -10.59375 65.140625 -7.8125 C 63.523438 -5.039062 61.363281 -2.863281 58.65625 -1.28125 C 55.945312 0.300781 52.945312 1.09375 49.65625 1.09375 Z M 49.65625 1.09375 "/></g></g></g><g fill="#55001d" fill-opacity="1"><g transform="translate(222.444338, 68.267995)"><g><path d="M 1.921875 0 L 1.921875 -1.09375 C 3.203125 -2.375 4.738281 -4.890625 6.53125 -8.640625 C 8.332031 -12.390625 10.269531 -17.3125 12.34375 -23.40625 L 18.84375 -40.5 C 20.96875 -46.65625 22.425781 -51.609375 23.21875 -55.359375 C 24.007812 -59.109375 24.253906 -61.625 23.953125 -62.90625 L 23.953125 -64 L 39.046875 -64 L 39.046875 -62.90625 C 38.253906 -60.164062 39.960938 -52.695312 44.171875 -40.5 L 50.5625 -23.40625 C 54.769531 -11.21875 58.273438 -3.78125 61.078125 -1.09375 L 61.078125 0 L 44.53125 0 L 44.53125 -1.09375 C 45.257812 -3.71875 43.519531 -11.15625 39.3125 -23.40625 L 34.921875 -35.5625 C 34.015625 -35.8125 33.054688 -35.78125 32.046875 -35.46875 C 31.046875 -35.164062 30.175781 -34.722656 29.4375 -34.140625 C 28.707031 -33.566406 28.28125 -32.976562 28.15625 -32.375 C 28.34375 -32.0625 28.492188 -31.613281 28.609375 -31.03125 C 28.734375 -30.457031 28.796875 -29.925781 28.796875 -29.4375 C 28.796875 -28.644531 28.675781 -27.820312 28.4375 -26.96875 C 28.195312 -26.113281 27.738281 -25.6875 27.0625 -25.6875 C 26.457031 -25.6875 26 -26.113281 25.6875 -26.96875 C 25.382812 -27.820312 25.234375 -28.644531 25.234375 -29.4375 C 25.234375 -29.925781 25.296875 -30.457031 25.421875 -31.03125 C 25.546875 -31.613281 25.695312 -32.0625 25.875 -32.375 C 25.8125 -32.976562 25.398438 -33.566406 24.640625 -34.140625 C 23.878906 -34.722656 22.992188 -35.164062 21.984375 -35.46875 C 20.984375 -35.78125 20.023438 -35.8125 19.109375 -35.5625 L 14.625 -23.40625 C 12.550781 -17.3125 11.101562 -12.390625 10.28125 -8.640625 C 9.457031 -4.890625 9.226562 -2.375 9.59375 -1.09375 L 9.59375 0 Z M 26.609375 -33.1875 L 27.4375 -33.1875 C 27.550781 -34.40625 28.28125 -35.578125 29.625 -36.703125 C 30.96875 -37.835938 32.398438 -38.4375 33.921875 -38.5 L 27.515625 -56.515625 L 26.515625 -56.515625 L 20.109375 -38.5 C 21.703125 -38.4375 23.164062 -37.835938 24.5 -36.703125 C 25.84375 -35.578125 26.546875 -34.40625 26.609375 -33.1875 Z M 26.609375 -33.1875 "/></g></g></g></g></g><g fill="#55001d" fill-opacity="1"><g transform="translate(121.388522, 240.832559)"><g><path d="M 20.78125 -40.90625 C 18.382812 -40.90625 16.421875 -40.25 14.890625 -38.9375 C 13.359375 -37.625 12.59375 -35.882812 12.59375 -33.71875 C 12.59375 -32.507812 12.945312 -31.34375 13.65625 -30.21875 C 14.363281 -29.101562 15.382812 -28.15625 16.71875 -27.375 L 24.1875 -23.015625 C 26.695312 -21.566406 28.472656 -19.96875 29.515625 -18.21875 C 30.554688 -16.46875 31.078125 -14.554688 31.078125 -12.484375 C 31.078125 -10.316406 30.445312 -8.28125 29.1875 -6.375 C 27.9375 -4.476562 26.082031 -2.941406 23.625 -1.765625 C 21.175781 -0.585938 18.164062 0 14.59375 0 C 11.925781 0 9.582031 -0.410156 7.5625 -1.234375 C 5.539062 -2.054688 3.96875 -3.179688 2.84375 -4.609375 C 1.726562 -6.046875 1.171875 -7.664062 1.171875 -9.46875 C 1.171875 -11.59375 1.679688 -13.144531 2.703125 -14.125 C 3.722656 -15.101562 4.941406 -15.59375 6.359375 -15.59375 C 7.296875 -15.59375 8.03125 -15.460938 8.5625 -15.203125 C 9.09375 -14.953125 9.457031 -14.695312 9.65625 -14.4375 C 9.851562 -14.1875 9.953125 -14.0625 9.953125 -14.0625 C 9.953125 -14.0625 9.785156 -13.863281 9.453125 -13.46875 C 9.117188 -13.082031 8.773438 -12.523438 8.421875 -11.796875 C 8.066406 -11.078125 7.890625 -10.207031 7.890625 -9.1875 C 7.890625 -7.414062 8.492188 -5.976562 9.703125 -4.875 C 10.921875 -3.78125 12.671875 -3.234375 14.953125 -3.234375 C 17.617188 -3.234375 19.71875 -3.929688 21.25 -5.328125 C 22.78125 -6.722656 23.546875 -8.378906 23.546875 -10.296875 C 23.546875 -11.785156 23.132812 -13.097656 22.3125 -14.234375 C 21.488281 -15.378906 20.09375 -16.5 18.125 -17.59375 L 11.828125 -21.1875 C 9.359375 -22.601562 7.613281 -24.160156 6.59375 -25.859375 C 5.570312 -27.566406 5.0625 -29.484375 5.0625 -31.609375 C 5.0625 -33.804688 5.671875 -35.851562 6.890625 -37.75 C 8.109375 -39.65625 9.882812 -41.195312 12.21875 -42.375 C 14.550781 -43.550781 17.425781 -44.140625 20.84375 -44.140625 C 23.625 -44.140625 26.0625 -43.707031 28.15625 -42.84375 C 30.257812 -41.988281 31.890625 -40.8125 33.046875 -39.3125 C 34.203125 -37.820312 34.78125 -36.097656 34.78125 -34.140625 C 34.78125 -32.097656 34.269531 -30.5 33.25 -29.34375 C 32.226562 -28.1875 30.816406 -27.609375 29.015625 -27.609375 C 27.609375 -27.609375 26.609375 -27.863281 26.015625 -28.375 C 25.429688 -28.882812 25.140625 -29.140625 25.140625 -29.140625 C 25.140625 -29.140625 25.382812 -29.332031 25.875 -29.71875 C 26.363281 -30.113281 26.851562 -30.753906 27.34375 -31.640625 C 27.832031 -32.523438 28.078125 -33.671875 28.078125 -35.078125 C 28.078125 -36.722656 27.488281 -38.101562 26.3125 -39.21875 C 25.132812 -40.34375 23.289062 -40.90625 20.78125 -40.90625 Z M 20.78125 -40.90625 "/></g></g></g><g fill="#55001d" fill-opacity="1"><g transform="translate(161.113891, 240.832559)"><g><path d="M 23.84375 -4.890625 C 27.0625 -4.890625 29.90625 -5.414062 32.375 -6.46875 C 34.84375 -7.53125 36.742188 -8.785156 38.078125 -10.234375 C 38.546875 -10.234375 38.847656 -10.113281 38.984375 -9.875 C 39.128906 -9.644531 39.160156 -9.335938 39.078125 -8.953125 C 38.921875 -8.203125 38.363281 -7.316406 37.40625 -6.296875 C 36.445312 -5.273438 35.148438 -4.285156 33.515625 -3.328125 C 31.890625 -2.367188 30 -1.570312 27.84375 -0.9375 C 25.6875 -0.3125 23.3125 0 20.71875 0 C 17.382812 0 14.375 -0.734375 11.6875 -2.203125 C 9 -3.679688 6.867188 -5.78125 5.296875 -8.5 C 3.722656 -11.226562 2.9375 -14.5 2.9375 -18.3125 C 2.9375 -22.1875 3.492188 -25.703125 4.609375 -28.859375 C 5.734375 -32.023438 7.296875 -34.742188 9.296875 -37.015625 C 11.296875 -39.296875 13.609375 -41.050781 16.234375 -42.28125 C 18.867188 -43.519531 21.71875 -44.140625 24.78125 -44.140625 C 27.25 -44.140625 29.316406 -43.664062 30.984375 -42.71875 C 32.648438 -41.78125 33.90625 -40.554688 34.75 -39.046875 C 35.59375 -37.535156 36.015625 -35.898438 36.015625 -34.140625 C 36.015625 -32.296875 35.671875 -30.734375 34.984375 -29.453125 C 34.304688 -28.179688 33.414062 -27.222656 32.3125 -26.578125 C 31.21875 -25.929688 30.0625 -25.609375 28.84375 -25.609375 C 27.894531 -25.609375 27.132812 -25.773438 26.5625 -26.109375 C 26 -26.441406 25.597656 -26.773438 25.359375 -27.109375 C 25.128906 -27.441406 25.015625 -27.609375 25.015625 -27.609375 C 25.015625 -27.609375 25.238281 -27.734375 25.6875 -27.984375 C 26.144531 -28.242188 26.65625 -28.6875 27.21875 -29.3125 C 27.789062 -29.9375 28.300781 -30.785156 28.75 -31.859375 C 29.195312 -32.941406 29.421875 -34.3125 29.421875 -35.96875 C 29.421875 -37.53125 28.976562 -38.742188 28.09375 -39.609375 C 27.21875 -40.472656 26.054688 -40.90625 24.609375 -40.90625 C 22.921875 -40.90625 21.269531 -40.335938 19.65625 -39.203125 C 18.050781 -38.066406 16.609375 -36.488281 15.328125 -34.46875 C 14.054688 -32.445312 13.035156 -30.109375 12.265625 -27.453125 C 11.503906 -24.804688 11.125 -21.972656 11.125 -18.953125 C 11.125 -14.441406 12.257812 -10.96875 14.53125 -8.53125 C 16.8125 -6.101562 19.914062 -4.890625 23.84375 -4.890625 Z M 23.84375 -4.890625 "/></g></g></g><g fill="#55001d" fill-opacity="1"><g transform="translate(203.428739, 240.832559)"><g><path d="M 24.1875 -44.140625 C 28.625 -44.140625 32.066406 -42.675781 34.515625 -39.75 C 36.972656 -36.832031 38.203125 -32.84375 38.203125 -27.78125 C 38.203125 -23.894531 37.707031 -20.273438 36.71875 -16.921875 C 35.738281 -13.566406 34.328125 -10.613281 32.484375 -8.0625 C 30.640625 -5.507812 28.410156 -3.523438 25.796875 -2.109375 C 23.191406 -0.703125 20.242188 0 16.953125 0 C 14.242188 0 11.835938 -0.597656 9.734375 -1.796875 C 7.640625 -2.992188 5.984375 -4.804688 4.765625 -7.234375 C 3.546875 -9.671875 2.9375 -12.710938 2.9375 -16.359375 C 2.9375 -20.359375 3.4375 -24.046875 4.4375 -27.421875 C 5.4375 -30.796875 6.867188 -33.726562 8.734375 -36.21875 C 10.597656 -38.71875 12.832031 -40.660156 15.4375 -42.046875 C 18.050781 -43.441406 20.96875 -44.140625 24.1875 -44.140625 Z M 11.65625 -22.078125 C 11.457031 -20.660156 11.296875 -19.222656 11.171875 -17.765625 C 11.054688 -16.316406 11 -15.066406 11 -14.015625 C 11 -11.304688 11.300781 -9.164062 11.90625 -7.59375 C 12.519531 -6.019531 13.328125 -4.898438 14.328125 -4.234375 C 15.328125 -3.566406 16.4375 -3.234375 17.65625 -3.234375 C 20.207031 -3.234375 22.5625 -4.78125 24.71875 -7.875 C 26.875 -10.976562 28.441406 -15.710938 29.421875 -22.078125 C 29.660156 -23.484375 29.828125 -24.910156 29.921875 -26.359375 C 30.023438 -27.816406 30.078125 -29.078125 30.078125 -30.140625 C 30.078125 -32.847656 29.78125 -34.984375 29.1875 -36.546875 C 28.601562 -38.117188 27.8125 -39.238281 26.8125 -39.90625 C 25.8125 -40.570312 24.679688 -40.90625 23.421875 -40.90625 C 21.890625 -40.90625 20.347656 -40.265625 18.796875 -38.984375 C 17.253906 -37.710938 15.851562 -35.703125 14.59375 -32.953125 C 13.34375 -30.210938 12.363281 -26.585938 11.65625 -22.078125 Z M 11.65625 -22.078125 "/></g></g></g><g fill="#55001d" fill-opacity="1"><g transform="translate(248.921564, 240.832559)"><g><path d="M 24.1875 -44.140625 C 28.625 -44.140625 32.066406 -42.675781 34.515625 -39.75 C 36.972656 -36.832031 38.203125 -32.84375 38.203125 -27.78125 C 38.203125 -23.894531 37.707031 -20.273438 36.71875 -16.921875 C 35.738281 -13.566406 34.328125 -10.613281 32.484375 -8.0625 C 30.640625 -5.507812 28.410156 -3.523438 25.796875 -2.109375 C 23.191406 -0.703125 20.242188 0 16.953125 0 C 14.242188 0 11.835938 -0.597656 9.734375 -1.796875 C 7.640625 -2.992188 5.984375 -4.804688 4.765625 -7.234375 C 3.546875 -9.671875 2.9375 -12.710938 2.9375 -16.359375 C 2.9375 -20.359375 3.4375 -24.046875 4.4375 -27.421875 C 5.4375 -30.796875 6.867188 -33.726562 8.734375 -36.21875 C 10.597656 -38.71875 12.832031 -40.660156 15.4375 -42.046875 C 18.050781 -43.441406 20.96875 -44.140625 24.1875 -44.140625 Z M 11.65625 -22.078125 C 11.457031 -20.660156 11.296875 -19.222656 11.171875 -17.765625 C 11.054688 -16.316406 11 -15.066406 11 -14.015625 C 11 -11.304688 11.300781 -9.164062 11.90625 -7.59375 C 12.519531 -6.019531 13.328125 -4.898438 14.328125 -4.234375 C 15.328125 -3.566406 16.4375 -3.234375 17.65625 -3.234375 C 20.207031 -3.234375 22.5625 -4.78125 24.71875 -7.875 C 26.875 -10.976562 28.441406 -15.710938 29.421875 -22.078125 C 29.660156 -23.484375 29.828125 -24.910156 29.921875 -26.359375 C 30.023438 -27.816406 30.078125 -29.078125 30.078125 -30.140625 C 30.078125 -32.847656 29.78125 -34.984375 29.1875 -36.546875 C 28.601562 -38.117188 27.8125 -39.238281 26.8125 -39.90625 C 25.8125 -40.570312 24.679688 -40.90625 23.421875 -40.90625 C 21.890625 -40.90625 20.347656 -40.265625 18.796875 -38.984375 C 17.253906 -37.710938 15.851562 -35.703125 14.59375 -32.953125 C 13.34375 -30.210938 12.363281 -26.585938 11.65625 -22.078125 Z M 11.65625 -22.078125 "/></g></g></g><g fill="#55001d" fill-opacity="1"><g transform="translate(294.414389, 240.832559)"><g><path d="M 21.59375 -31.484375 L 18.890625 -16.015625 C 18.890625 -16.015625 19.179688 -15.972656 19.765625 -15.890625 C 20.359375 -15.816406 21.144531 -15.78125 22.125 -15.78125 C 24.363281 -15.78125 26.304688 -16.347656 27.953125 -17.484375 C 29.609375 -18.617188 30.894531 -20.164062 31.8125 -22.125 C 32.738281 -24.09375 33.203125 -26.289062 33.203125 -28.71875 C 33.203125 -32.332031 31.992188 -35.265625 29.578125 -37.515625 C 27.160156 -39.773438 23.40625 -40.90625 18.3125 -40.90625 C 15.363281 -40.90625 12.984375 -40.507812 11.171875 -39.71875 C 9.367188 -38.9375 8.066406 -37.96875 7.265625 -36.8125 C 6.460938 -35.65625 6.0625 -34.507812 6.0625 -33.375 C 6.0625 -32.550781 6.265625 -31.894531 6.671875 -31.40625 C 7.085938 -30.914062 7.671875 -30.671875 8.421875 -30.671875 C 8.734375 -30.671875 8.976562 -30.695312 9.15625 -30.75 C 9.332031 -30.8125 9.421875 -30.84375 9.421875 -30.84375 C 9.421875 -30.84375 9.425781 -30.800781 9.4375 -30.71875 C 9.457031 -30.644531 9.46875 -30.507812 9.46875 -30.3125 C 9.46875 -29.601562 9.09375 -28.875 8.34375 -28.125 C 7.601562 -27.382812 6.488281 -27.015625 5 -27.015625 C 3.082031 -27.015625 1.570312 -27.550781 0.46875 -28.625 C -0.625 -29.707031 -1.171875 -31.132812 -1.171875 -32.90625 C -1.171875 -34.863281 -0.46875 -36.695312 0.9375 -38.40625 C 2.351562 -40.113281 4.507812 -41.492188 7.40625 -42.546875 C 10.3125 -43.609375 14.003906 -44.140625 18.484375 -44.140625 C 23.929688 -44.140625 28.332031 -43.441406 31.6875 -42.046875 C 35.050781 -40.660156 37.503906 -38.78125 39.046875 -36.40625 C 40.597656 -34.03125 41.375 -31.351562 41.375 -28.375 C 41.375 -25.3125 40.644531 -22.582031 39.1875 -20.1875 C 37.738281 -17.789062 35.679688 -15.914062 33.015625 -14.5625 C 30.347656 -13.207031 27.191406 -12.53125 23.546875 -12.53125 C 22.484375 -12.53125 21.519531 -12.566406 20.65625 -12.640625 C 19.789062 -12.722656 19.023438 -12.828125 18.359375 -12.953125 L 17.1875 -6.1875 C 16.832031 -4.144531 16.734375 -2.703125 16.890625 -1.859375 C 17.046875 -1.015625 17.125 -0.59375 17.125 -0.59375 C 17.125 -0.59375 16.867188 -0.492188 16.359375 -0.296875 C 15.847656 -0.0976562 14.984375 0 13.765625 0 C 11.609375 0 10.234375 -0.5 9.640625 -1.5 C 9.054688 -2.5 8.960938 -4.140625 9.359375 -6.421875 L 13.765625 -31.78125 C 14.117188 -33.820312 14.21875 -35.253906 14.0625 -36.078125 C 13.90625 -36.898438 13.828125 -37.3125 13.828125 -37.3125 C 13.828125 -37.3125 14.082031 -37.410156 14.59375 -37.609375 C 15.101562 -37.804688 15.96875 -37.90625 17.1875 -37.90625 C 19.382812 -37.90625 20.765625 -37.40625 21.328125 -36.40625 C 21.898438 -35.40625 21.988281 -33.765625 21.59375 -31.484375 Z M 21.59375 -31.484375 "/></g></g></g><g clip-path="url(#c68cb92744)"><g clip-path="url(#baaf1e5b63)"><g clip-path="url(#1127267bfc)"><g clip-path="url(#7eb752d768)"><path fill="#620e2c" d="M 53.503906 190.242188 C 53.722656 190.070312 54.050781 190.171875 54.160156 190.421875 C 54.917969 192.140625 55.070312 193.839844 54.980469 195.691406 C 54.96875 195.984375 54.527344 195.921875 54.535156 195.628906 C 54.566406 194.222656 54.210938 192.816406 53.695312 191.503906 C 53.5 191.84375 52.9375 191.628906 52.980469 191.210938 C 52.992188 190.75 53.152344 190.507812 53.503906 190.242188 Z M 55.558594 215.722656 C 55.636719 215.757812 55.714844 215.796875 55.816406 215.832031 C 55.867188 215.847656 55.828125 215.925781 55.777344 215.910156 C 55.703125 215.894531 55.601562 215.859375 55.527344 215.847656 C 55.425781 215.8125 55.480469 215.683594 55.558594 215.722656 Z M 75.90625 192.402344 C 74.6875 192.515625 74.351562 192.898438 73.476562 193.621094 C 73.019531 193.996094 72.644531 194.289062 72.0625 194.460938 C 71.902344 194.507812 71.722656 194.433594 71.695312 194.246094 C 71.671875 194.078125 71.652344 193.910156 71.652344 193.742188 L 71.648438 193.71875 C 70.085938 194.894531 69.289062 196.914062 67.375 197.652344 C 67.261719 197.691406 67.132812 197.636719 67.070312 197.523438 C 66.871094 197.140625 66.890625 196.917969 67.035156 196.535156 C 67.105469 196.355469 67.410156 196.4375 67.363281 196.636719 C 67.382812 196.78125 67.402344 196.945312 67.445312 197.085938 C 69.214844 196.171875 69.972656 194.039062 71.671875 192.964844 C 71.980469 192.753906 72.359375 193.238281 72.023438 193.425781 C 72.003906 193.453125 71.953125 193.460938 71.933594 193.484375 C 72.007812 193.5 72.066406 193.566406 72.101562 193.65625 C 72.109375 193.707031 72.113281 193.753906 72.148438 193.820312 C 73.304688 193.230469 73.964844 191.8125 75.34375 191.628906 C 76.25 191.507812 76.730469 191.296875 77.539062 190.828125 C 78.191406 190.449219 78.867188 190.261719 79.605469 190.164062 C 80.082031 190.101562 80.183594 190.863281 79.707031 190.925781 C 78.210938 191.148438 77.316406 192.261719 75.90625 192.402344 Z M 66.574219 196.71875 C 65.453125 196.84375 64.347656 198.734375 63.710938 199.59375 C 63.136719 200.375 62.5625 201.175781 62.042969 201.996094 C 60.8125 203.855469 59.691406 205.796875 58.695312 207.792969 C 58.65625 207.871094 58.503906 207.820312 58.566406 207.738281 C 59.625 205.296875 60.835938 202.933594 62.28125 200.703125 C 63.226562 199.246094 64.585938 196.328125 66.511719 196.074219 C 66.914062 195.996094 67.003906 196.660156 66.574219 196.71875 Z M 76.023438 238.628906 C 76.023438 238.628906 76.023438 238.652344 76.023438 238.628906 C 76.023438 238.652344 76.023438 238.652344 76.023438 238.628906 Z M 68.4375 232.78125 C 68.453125 232.707031 68.417969 232.640625 68.339844 232.601562 C 68.285156 232.558594 68.207031 232.523438 68.15625 232.503906 C 66.121094 230.472656 64.488281 228.050781 63.523438 225.34375 C 62.371094 222.128906 63.207031 218.046875 64.015625 214.816406 C 64.011719 214.792969 64.011719 214.792969 64.03125 214.765625 C 64.304688 214.632812 64.332031 214.289062 64.210938 214.109375 C 65.101562 210.964844 66.757812 208.128906 69.277344 205.953125 C 69.453125 205.808594 69.25 205.542969 69.046875 205.667969 C 67.460938 206.652344 66.253906 207.976562 65.316406 209.503906 C 63.175781 211.605469 60.640625 213.300781 58.609375 215.535156 C 58.5625 215.539062 58.519531 215.570312 58.472656 215.574219 L 58.46875 215.550781 C 58.464844 215.527344 58.441406 215.53125 58.4375 215.507812 C 58.480469 215.476562 58.527344 215.449219 58.566406 215.371094 C 59.9375 213.296875 61.84375 211.785156 63.738281 210.199219 C 65.460938 208.761719 66.886719 207.09375 68.441406 205.480469 C 71.480469 202.292969 74.882812 199.441406 78.34375 196.703125 C 78.023438 197.207031 77.757812 197.75 77.480469 198.394531 C 77.421875 198.523438 77.367188 198.652344 77.289062 198.78125 C 77.277344 198.6875 77.144531 198.605469 77.0625 198.714844 C 76.089844 199.957031 74.898438 201.207031 73.648438 202.199219 C 72.488281 203.125 71.144531 203.765625 70.070312 204.804688 C 69.726562 205.140625 70.175781 205.761719 70.539062 205.421875 C 70.648438 205.308594 70.78125 205.21875 70.910156 205.105469 C 73.964844 203.851562 77.410156 207.34375 79.625 209.082031 C 82.164062 211.046875 84.578125 213.171875 86.457031 215.804688 C 88.386719 218.480469 89.710938 221.71875 89.667969 225.042969 C 89.640625 228.097656 87.953125 230.71875 87.648438 233.71875 C 87.539062 233.609375 87.429688 233.503906 87.296875 233.425781 C 88.03125 228.214844 90.097656 220.066406 84.347656 216.882812 C 84.164062 216.789062 83.984375 217.078125 84.171875 217.199219 C 89.203125 220.621094 87.210938 227.863281 86.507812 232.949219 C 86.300781 232.855469 86.074219 232.789062 85.824219 232.75 C 86.429688 228.914062 86.117188 224.933594 84.972656 221.234375 C 84.925781 221.070312 84.648438 221.15625 84.695312 221.320312 C 85.578125 225.054688 85.679688 228.746094 85.085938 232.484375 C 84.9375 232.429688 84.808594 232.398438 84.683594 232.367188 C 84.039062 232.234375 83.367188 232.300781 82.808594 232.640625 C 82.785156 232.644531 82.785156 232.667969 82.761719 232.671875 C 82.660156 232.636719 82.5625 232.625 82.464844 232.613281 C 81.558594 228.15625 79.882812 223.582031 81 219.046875 C 81.046875 218.847656 80.71875 218.746094 80.648438 218.949219 C 79.921875 221.128906 80.046875 223.367188 80.445312 225.613281 C 80.828125 227.960938 81.261719 230.300781 81.789062 232.628906 C 81.242188 232.703125 80.6875 232.921875 80.171875 233.234375 C 78.214844 230.539062 76.890625 227.855469 75.722656 224.714844 C 74.515625 221.460938 73.273438 218.136719 72.507812 214.75 C 72.453125 214.515625 72.070312 214.566406 72.128906 214.800781 C 73.460938 221.382812 75.578125 228.175781 79.597656 233.648438 C 79.246094 233.914062 78.972656 234.214844 78.769531 234.507812 C 78.722656 234.539062 78.703125 234.566406 78.683594 234.59375 C 78.464844 234.769531 78.230469 235.015625 78.027344 235.308594 C 75.640625 232.480469 72.28125 230.722656 69.621094 228.191406 C 69.476562 228.042969 69.222656 228.292969 69.363281 228.445312 C 70.675781 229.746094 72.230469 230.703125 73.625 231.898438 C 75.050781 233.140625 76.222656 234.679688 77.625 235.945312 C 77.355469 236.441406 77.15625 236.953125 77.125 237.441406 C 76.90625 237.640625 76.695312 237.863281 76.507812 238.105469 C 76.488281 237.960938 76.398438 237.804688 76.195312 237.734375 C 73.28125 236.597656 70.632812 234.914062 68.4375 232.78125 Z M 63.023438 215.019531 C 62.347656 217.410156 61.820312 220.167969 61.984375 222.691406 C 60.722656 220.679688 59.726562 218.632812 58.824219 216.402344 C 58.871094 216.394531 58.914062 216.363281 58.957031 216.3125 C 59.148438 216.117188 59.339844 215.921875 59.53125 215.726562 C 60.695312 215.546875 61.871094 215.292969 63.023438 215.019531 Z M 63.289062 214.113281 C 62.308594 214.363281 61.300781 214.640625 60.328125 214.964844 C 61.726562 213.640625 63.132812 212.363281 64.476562 211 C 64.058594 211.878906 63.695312 212.796875 63.410156 213.734375 C 63.378906 213.859375 63.320312 213.988281 63.289062 214.113281 Z M 71.023438 201.214844 C 74.789062 198.023438 78.707031 195.058594 82.617188 192.042969 C 81.828125 193.019531 81.199219 194.121094 80.183594 194.859375 C 80.132812 194.84375 80.058594 194.828125 79.988281 194.863281 C 77.699219 196.230469 75.644531 198.078125 73.566406 199.738281 C 71.679688 201.246094 69.855469 202.824219 68.167969 204.523438 C 66.417969 206.285156 64.773438 208.148438 62.882812 209.757812 C 63.234375 209.324219 63.59375 208.910156 63.945312 208.476562 C 66.175781 205.929688 68.429688 203.398438 71.023438 201.214844 Z M 86.980469 188.96875 C 86.59375 189.140625 86.203125 189.3125 85.820312 189.507812 C 86.039062 189.335938 86.257812 189.160156 86.453125 188.988281 C 86.648438 189.011719 86.816406 188.988281 86.980469 188.96875 Z M 73.367188 203.710938 C 73.234375 203.804688 73.203125 203.953125 73.21875 204.070312 C 72.925781 204.039062 72.605469 204.007812 72.292969 204.023438 C 73.023438 203.492188 73.777344 202.980469 74.417969 202.335938 C 75.492188 201.296875 76.296875 200.078125 77.207031 198.890625 C 76.292969 200.78125 75.054688 202.375 73.367188 203.710938 Z M 91.035156 241.332031 C 90.941406 241.34375 90.902344 241.421875 90.867188 241.523438 C 90.605469 241.558594 90.328125 241.476562 90.136719 241.308594 C 90.082031 241.265625 90.054688 241.246094 89.976562 241.183594 C 89.808594 241.035156 89.734375 240.828125 89.707031 240.613281 C 89.632812 240.257812 89.898438 239.886719 90.195312 239.75 C 90.332031 239.683594 90.472656 239.640625 90.613281 239.597656 C 90.65625 239.566406 90.726562 239.558594 90.800781 239.546875 C 90.800781 239.546875 90.800781 239.546875 90.824219 239.542969 C 90.894531 239.535156 90.992188 239.546875 91.039062 239.539062 C 91.457031 239.582031 91.75 239.953125 91.757812 240.367188 C 91.757812 240.367188 91.757812 240.367188 91.757812 240.386719 C 91.738281 240.414062 91.746094 240.464844 91.722656 240.492188 C 91.578125 240.847656 91.265625 241.058594 91.035156 241.332031 Z M 81.425781 249.03125 C 81.441406 248.980469 81.460938 248.929688 81.476562 248.878906 C 81.570312 248.671875 81.269531 248.421875 81.101562 248.589844 C 81.058594 248.644531 81.015625 248.671875 80.972656 248.726562 C 80.722656 248.492188 80.546875 248.25 80.433594 247.949219 C 80.488281 247.796875 80.566406 247.667969 80.667969 247.53125 C 80.957031 247.152344 81.460938 247.113281 81.835938 247.375 C 82.128906 247.582031 82.203125 247.957031 82.101562 248.285156 C 82.097656 248.625 81.855469 248.972656 81.527344 249.066406 C 81.507812 249.089844 81.457031 249.074219 81.425781 249.03125 Z M 77.238281 243.964844 C 77.230469 243.726562 77.027344 243.65625 76.839844 243.703125 C 76.957031 243.472656 77.199219 243.292969 77.480469 243.230469 C 77.71875 243.199219 77.949219 243.289062 78.136719 243.433594 C 78.324219 243.554688 78.472656 243.753906 78.503906 244.015625 C 78.589844 244.464844 78.234375 244.898438 77.785156 244.960938 C 77.640625 244.980469 77.496094 244.972656 77.390625 244.914062 C 77.304688 244.636719 77.265625 244.328125 77.238281 243.964844 Z M 87.320312 240.15625 C 87.292969 240.132812 87.265625 240.113281 87.238281 240.09375 C 86.859375 239.804688 86.816406 239.300781 87.082031 238.925781 C 87.347656 238.550781 87.898438 238.503906 88.25 238.773438 C 88.277344 238.792969 88.304688 238.8125 88.332031 238.835938 C 88.707031 239.125 88.75 239.625 88.484375 240 C 88.242188 240.347656 87.667969 240.398438 87.320312 240.15625 Z M 83.289062 240.644531 C 83.273438 240.523438 83.28125 240.402344 83.316406 240.300781 C 83.3125 240.277344 83.289062 240.28125 83.285156 240.253906 C 83.144531 240.105469 83.066406 239.875 83.066406 239.679688 C 83.074219 239.582031 83.089844 239.507812 83.078125 239.410156 C 83.074219 239.195312 83.242188 239.003906 83.390625 238.859375 C 83.566406 238.714844 83.804688 238.683594 84.027344 238.703125 C 84.125 238.714844 84.203125 238.753906 84.28125 238.792969 C 83.972656 238.492188 83.960938 238.035156 84.179688 237.691406 C 84.445312 237.316406 84.996094 237.265625 85.347656 237.535156 C 85.375 237.554688 85.402344 237.578125 85.429688 237.597656 C 85.804688 237.886719 85.847656 238.386719 85.582031 238.761719 C 85.339844 239.109375 84.839844 239.175781 84.496094 238.957031 C 84.523438 238.976562 84.523438 238.976562 84.550781 238.996094 C 84.667969 239.152344 84.710938 239.292969 84.707031 239.460938 C 84.753906 239.625 84.75 239.792969 84.722656 239.945312 C 84.832031 240.050781 84.902344 240.210938 84.929688 240.402344 C 85.074219 241.496094 83.433594 241.714844 83.289062 240.644531 Z M 81.4375 240.574219 L 81.429688 240.503906 C 81.421875 240.429688 81.433594 240.355469 81.425781 240.285156 C 81.21875 240.191406 81.019531 239.976562 80.980469 239.667969 C 80.835938 238.59375 82.484375 238.402344 82.621094 239.449219 C 82.632812 239.519531 82.640625 239.589844 82.628906 239.664062 C 82.863281 239.804688 83.015625 240.027344 83.046875 240.289062 L 83.058594 240.359375 C 83.117188 240.8125 82.785156 241.21875 82.335938 241.300781 C 81.933594 241.378906 81.496094 241.003906 81.4375 240.574219 Z M 79.175781 240.488281 C 79.035156 239.414062 80.679688 239.222656 80.816406 240.269531 C 80.957031 241.316406 79.316406 241.535156 79.175781 240.488281 Z M 80.050781 237.609375 C 80.421875 237.851562 80.441406 238.355469 80.25 238.722656 C 80.226562 238.75 80.230469 238.773438 80.210938 238.800781 C 80.152344 238.902344 80.09375 239.007812 80.035156 239.113281 C 79.769531 239.488281 79.214844 239.511719 78.867188 239.269531 C 78.496094 239.027344 78.476562 238.519531 78.671875 238.15625 C 78.691406 238.128906 78.6875 238.105469 78.710938 238.078125 C 78.769531 237.972656 78.828125 237.867188 78.886719 237.765625 C 79.148438 237.367188 79.703125 237.339844 80.050781 237.609375 Z M 80.894531 236.480469 C 80.8125 236.03125 81.164062 235.597656 81.617188 235.535156 C 81.902344 235.496094 82.15625 235.585938 82.398438 235.746094 C 82.773438 236.035156 82.816406 236.539062 82.550781 236.914062 C 82.328125 237.234375 81.878906 237.316406 81.539062 237.144531 C 81.195312 237.09375 80.964844 236.808594 80.894531 236.480469 Z M 85.363281 234.019531 C 85.394531 234.257812 85.304688 234.488281 85.160156 234.675781 C 85.039062 234.863281 84.84375 235.011719 84.582031 235.042969 C 84.132812 235.128906 83.695312 234.773438 83.636719 234.324219 C 83.566406 233.800781 83.898438 233.367188 84.421875 233.296875 C 84.539062 233.28125 84.636719 233.292969 84.738281 233.328125 C 84.789062 233.347656 84.839844 233.363281 84.890625 233.378906 C 84.875 233.429688 84.878906 233.457031 84.882812 233.503906 C 84.828125 233.800781 85.089844 233.960938 85.328125 233.929688 C 85.359375 233.972656 85.363281 233.996094 85.363281 234.019531 Z M 87.835938 235.121094 C 87.835938 235.121094 87.839844 235.144531 87.835938 235.121094 C 87.921875 235.570312 87.570312 236.027344 87.136719 236.0625 C 86.613281 236.132812 86.183594 235.800781 86.113281 235.277344 C 86.054688 234.824219 86.386719 234.417969 86.835938 234.332031 C 87.074219 234.300781 87.277344 234.371094 87.464844 234.515625 C 87.566406 234.746094 87.691406 234.945312 87.835938 235.121094 Z M 81.957031 233.527344 C 82.054688 233.902344 82.585938 233.882812 82.617188 233.5625 C 82.6875 233.578125 82.742188 233.59375 82.816406 233.632812 C 82.953125 233.734375 83.023438 233.894531 83.050781 234.109375 C 83.195312 235.179688 81.546875 235.375 81.410156 234.328125 C 81.351562 233.898438 81.582031 233.625 81.878906 233.492188 C 81.902344 233.488281 81.925781 233.484375 81.949219 233.480469 C 81.949219 233.480469 81.953125 233.503906 81.957031 233.527344 Z M 78.84375 236.171875 C 78.773438 235.648438 79.105469 235.214844 79.628906 235.148438 C 80.082031 235.085938 80.488281 235.417969 80.570312 235.867188 C 80.601562 236.105469 80.511719 236.335938 80.367188 236.523438 C 80.25 236.710938 80.050781 236.859375 79.789062 236.894531 C 79.339844 236.976562 78.90625 236.625 78.84375 236.171875 Z M 90 237.375 C 89.980469 237.402344 89.960938 237.429688 89.941406 237.457031 L 89.917969 237.484375 C 89.628906 237.863281 89.128906 237.90625 88.753906 237.640625 C 88.378906 237.375 88.328125 236.824219 88.597656 236.472656 L 88.617188 236.445312 L 88.679688 236.367188 C 88.96875 235.988281 89.472656 235.945312 89.847656 236.210938 C 90.199219 236.476562 90.246094 237.027344 90 237.375 Z M 77.140625 240.296875 C 77.3125 240.128906 77.285156 239.746094 76.992188 239.734375 C 76.824219 239.734375 76.65625 239.757812 76.492188 239.804688 C 76.527344 239.699219 76.539062 239.601562 76.574219 239.5 L 76.644531 239.492188 C 77.097656 239.429688 77.503906 239.765625 77.589844 240.214844 C 77.671875 240.664062 77.320312 241.097656 76.867188 241.15625 L 76.792969 241.167969 C 76.675781 241.183594 76.578125 241.171875 76.476562 241.136719 C 76.625 240.800781 76.835938 240.582031 77.140625 240.296875 Z M 86.65625 242.085938 C 86.203125 242.144531 85.792969 241.8125 85.710938 241.363281 C 85.628906 240.914062 85.980469 240.480469 86.433594 240.417969 L 86.503906 240.410156 C 86.957031 240.347656 87.363281 240.683594 87.449219 241.132812 C 87.53125 241.582031 87.179688 242.015625 86.726562 242.074219 Z M 91.175781 242.1875 L 91.199219 242.183594 C 91.203125 242.207031 91.226562 242.226562 91.230469 242.253906 C 91.203125 242.230469 91.203125 242.207031 91.175781 242.1875 Z M 82.101562 245.546875 C 81.957031 244.476562 83.605469 244.28125 83.742188 245.328125 C 83.886719 246.402344 82.242188 246.621094 82.101562 245.546875 Z M 86.183594 243.648438 C 86.441406 243.953125 86.453125 244.390625 86.226562 244.710938 C 86.171875 244.8125 86.058594 244.878906 85.945312 244.941406 C 86.003906 245.03125 86.042969 245.144531 86.058594 245.265625 C 86.203125 246.335938 84.558594 246.53125 84.417969 245.484375 C 84.363281 245.078125 84.566406 244.785156 84.863281 244.648438 C 84.75 244.519531 84.679688 244.359375 84.652344 244.144531 C 84.589844 243.691406 84.925781 243.285156 85.375 243.199219 C 85.6875 243.183594 86.027344 243.378906 86.183594 243.648438 Z M 89.105469 242.847656 C 89.257812 242.902344 89.367188 242.984375 89.429688 243.097656 C 89.496094 243.039062 89.582031 242.980469 89.675781 242.941406 C 89.765625 242.882812 89.855469 242.847656 89.949219 242.808594 C 89.867188 242.917969 89.863281 243.085938 90.023438 243.1875 C 90.417969 243.425781 90.835938 243.660156 91.253906 243.871094 C 91.175781 244.195312 90.898438 244.476562 90.558594 244.496094 L 90.15625 244.550781 C 90.132812 244.554688 90.132812 244.554688 90.109375 244.558594 C 90.085938 244.558594 90.085938 244.558594 90.0625 244.5625 C 89.777344 244.625 89.546875 244.511719 89.375 244.316406 C 89.320312 244.445312 89.238281 244.574219 89.15625 244.683594 C 88.890625 245.058594 88.359375 245.078125 87.992188 244.839844 C 87.617188 244.574219 87.589844 244.019531 87.835938 243.671875 L 87.855469 243.644531 C 87.875 243.617188 87.875 243.59375 87.894531 243.589844 C 87.933594 243.511719 87.949219 243.4375 87.988281 243.363281 C 88.160156 242.855469 88.699219 242.710938 89.105469 242.847656 Z M 81.496094 243.546875 C 81.558594 244.023438 81.261719 244.328125 80.886719 244.425781 C 81.023438 244.554688 81.144531 244.730469 81.167969 244.921875 C 81.175781 244.96875 81.203125 244.988281 81.210938 245.039062 C 81.253906 245.199219 81.296875 245.339844 81.320312 245.507812 C 81.40625 245.957031 81.046875 246.367188 80.597656 246.453125 C 80.148438 246.535156 79.738281 246.175781 79.652344 245.730469 L 79.652344 245.703125 C 79.648438 245.679688 79.617188 245.636719 79.613281 245.613281 C 79.570312 245.472656 79.527344 245.332031 79.507812 245.191406 C 79.433594 244.789062 79.722656 244.433594 80.070312 244.292969 C 79.933594 244.191406 79.8125 244.011719 79.78125 243.773438 C 79.710938 242.691406 81.351562 242.476562 81.496094 243.546875 Z M 82.34375 242.632812 C 82.199219 241.5625 83.847656 241.367188 83.984375 242.414062 C 84.125 243.460938 82.484375 243.679688 82.34375 242.632812 Z M 89.582031 246.976562 C 89.542969 247.03125 89.472656 247.0625 89.429688 247.09375 C 89.367188 247.175781 89.304688 247.253906 89.214844 247.316406 C 88.972656 247.492188 88.664062 247.535156 88.382812 247.425781 C 88.125 247.316406 87.886719 247.152344 87.671875 246.988281 C 87.375 246.761719 87.273438 246.363281 87.417969 246.003906 C 87.539062 245.648438 87.953125 245.472656 88.296875 245.5 C 88.296875 245.5 88.34375 245.496094 88.371094 245.515625 C 88.417969 245.507812 88.464844 245.5 88.511719 245.496094 C 88.625 245.433594 88.765625 245.390625 88.910156 245.394531 C 89.347656 245.386719 89.582031 245.691406 89.773438 246.054688 C 89.914062 246.375 89.796875 246.753906 89.582031 246.976562 Z M 85.1875 249.085938 C 84.929688 249.144531 84.664062 249.15625 84.417969 249.140625 C 84.265625 248.894531 84.113281 248.648438 83.933594 248.40625 C 83.925781 248.359375 83.925781 248.332031 83.941406 248.285156 C 83.957031 248.207031 83.972656 248.132812 83.984375 248.058594 C 83.996094 247.960938 84.03125 247.859375 84.070312 247.78125 C 84.148438 247.457031 84.40625 247.230469 84.761719 247.15625 C 84.808594 247.152344 84.855469 247.144531 84.878906 247.140625 C 85.308594 247.085938 85.78125 247.359375 85.84375 247.835938 L 85.855469 247.90625 C 85.890625 248.171875 85.800781 248.398438 85.628906 248.570312 C 85.628906 248.589844 85.605469 248.59375 85.609375 248.617188 C 85.558594 248.796875 85.429688 248.910156 85.273438 249.003906 C 85.257812 249.078125 85.234375 249.082031 85.1875 249.085938 C 85.210938 249.082031 85.210938 249.082031 85.1875 249.085938 Z M 89.578125 247.316406 C 89.574219 247.292969 89.597656 247.265625 89.59375 247.242188 C 89.640625 247.234375 89.664062 247.230469 89.710938 247.226562 C 89.671875 247.28125 89.625 247.308594 89.578125 247.316406 Z M 63.695312 251.582031 C 63.671875 251.609375 63.652344 251.632812 63.632812 251.660156 C 60.859375 251.570312 58.457031 251.550781 55.800781 250.523438 C 53.78125 249.726562 52.296875 248.589844 50.882812 247.226562 C 51.828125 247.78125 52.832031 248.226562 53.894531 248.570312 C 57.136719 249.644531 60.773438 250.925781 64.246094 250.804688 C 64.058594 251.046875 63.875 251.3125 63.695312 251.582031 Z M 45.070312 216.824219 C 45.09375 216.820312 45.117188 216.792969 45.113281 216.769531 C 45.390625 216.855469 45.664062 216.914062 45.9375 216.953125 C 45.566406 217.269531 45.226562 217.628906 44.964844 217.832031 C 43.882812 218.628906 42.792969 219.355469 41.621094 220.019531 C 41.550781 220.054688 41.511719 220.109375 41.496094 220.183594 C 40.921875 220.234375 40.351562 220.3125 39.761719 220.4375 C 41.511719 219.210938 43.257812 217.9375 45.070312 216.824219 Z M 53 218.894531 C 52.5625 219.050781 52.121094 219.183594 51.675781 219.3125 C 52.660156 218.527344 53.542969 217.515625 54.316406 216.566406 C 54.488281 216.589844 54.65625 216.59375 54.832031 216.617188 C 54.230469 217.398438 53.707031 218.195312 53 218.894531 Z M 50.601562 216.523438 C 50.867188 216.515625 51.15625 216.5 51.421875 216.488281 C 49.636719 217.644531 47.921875 218.941406 46.195312 220.1875 C 45.835938 220.210938 45.449219 220.214844 45.082031 220.191406 C 47.03125 219.179688 48.773438 217.710938 50.601562 216.523438 Z M 47.015625 220.152344 C 48.894531 218.980469 50.820312 217.804688 52.582031 216.480469 C 52.898438 216.484375 53.191406 216.496094 53.511719 216.527344 C 52.570312 217.644531 51.507812 218.585938 50.507812 219.640625 C 49.378906 219.886719 48.214844 220.066406 47.015625 220.152344 Z M 42.410156 220.132812 C 43.109375 219.75 43.808594 219.367188 44.507812 218.957031 C 45.492188 218.34375 46.347656 217.503906 47.339844 216.933594 C 47.886719 216.863281 48.429688 216.765625 48.953125 216.695312 C 47.300781 217.738281 45.898438 219.234375 44.160156 220.167969 C 43.546875 220.128906 42.96875 220.132812 42.410156 220.132812 Z M 29.410156 220.019531 C 29.132812 219.9375 28.878906 219.824219 28.574219 219.746094 C 27.558594 219.394531 26.800781 218.769531 25.953125 218.226562 C 26.730469 218.078125 27.492188 217.78125 28.238281 217.5625 C 29.378906 217.214844 30.652344 216.949219 31.6875 216.351562 C 31.867188 216.253906 31.824219 215.945312 31.585938 215.953125 C 29.460938 216.1875 27.570312 217.480469 25.503906 217.949219 C 25.425781 217.910156 25.34375 217.847656 25.265625 217.808594 C 24.980469 217.652344 24.671875 217.527344 24.363281 217.398438 C 25.125 217.101562 25.882812 216.808594 26.671875 216.53125 C 27.296875 216.328125 27.980469 216.164062 28.621094 215.910156 C 29.15625 215.914062 29.691406 215.914062 30.199219 215.917969 C 31.167969 215.910156 32.109375 215.90625 33.082031 215.921875 C 32.742188 216.089844 32.375 216.257812 32.035156 216.425781 C 30.378906 217.277344 28.667969 217.890625 26.90625 218.488281 C 26.722656 218.5625 26.8125 218.863281 27 218.816406 C 28.554688 218.488281 30.03125 218.121094 31.472656 217.46875 C 32.703125 216.894531 33.839844 216.355469 35.097656 215.96875 C 35.535156 215.984375 35.972656 216 36.410156 215.988281 C 34.289062 217.699219 31.617188 218.394531 29.410156 220.019531 Z M 22.054688 214.796875 C 22.457031 214.914062 22.863281 215.027344 23.285156 215.117188 C 22.691406 215.199219 22.105469 215.347656 21.574219 215.539062 C 21.734375 215.300781 21.898438 215.058594 22.054688 214.796875 Z M 23.40625 213.480469 C 24.46875 212.902344 25.703125 212.882812 26.917969 212.746094 C 26.882812 212.847656 26.921875 212.964844 27.074219 212.992188 C 28.699219 213.210938 29.925781 213.871094 31.410156 214.449219 C 31.867188 214.632812 32.324219 214.765625 32.78125 214.921875 C 32.054688 214.921875 31.328125 214.945312 30.601562 214.945312 C 29.605469 214.566406 28.574219 214.269531 27.542969 213.996094 C 26.265625 213.65625 24.972656 213.222656 23.667969 213.445312 C 23.429688 213.476562 23.476562 213.808594 23.714844 213.800781 C 25.40625 213.769531 27.230469 214.351562 28.957031 214.96875 C 28.910156 214.976562 28.863281 214.980469 28.8125 214.964844 C 27.703125 214.992188 26.410156 214.921875 25.082031 214.976562 C 24.832031 214.914062 24.582031 214.847656 24.332031 214.785156 C 23.703125 214.601562 23.054688 214.46875 22.40625 214.339844 C 22.65625 214.015625 22.976562 213.707031 23.40625 213.480469 Z M 30.847656 213.144531 C 32.226562 213.6875 33.675781 214.367188 35.15625 214.945312 C 34.964844 214.945312 34.765625 214.925781 34.546875 214.929688 C 33.679688 214.390625 32.574219 214.292969 31.578125 213.917969 C 30.125 213.359375 29.109375 212.816406 27.660156 212.671875 C 28.0625 212.59375 28.464844 212.515625 28.832031 212.371094 C 29.515625 212.617188 30.207031 212.890625 30.847656 213.144531 Z M 21.210938 216.824219 C 22.695312 216.140625 24.4375 215.957031 26.175781 215.898438 C 26.199219 215.894531 26.199219 215.894531 26.222656 215.890625 C 26.339844 215.875 26.4375 215.886719 26.5625 215.894531 C 25.644531 216.28125 24.738281 216.765625 23.949219 217.1875 C 23.925781 217.1875 23.925781 217.214844 23.902344 217.214844 C 23.042969 216.941406 22.105469 216.824219 21.210938 216.824219 Z M 43.933594 211.550781 C 42.140625 209.535156 40.230469 207.027344 37.863281 205.597656 C 38.507812 205.707031 39.128906 205.816406 39.769531 205.925781 C 39.753906 205.976562 39.761719 206.046875 39.816406 206.089844 C 42.476562 207.867188 44.71875 209.992188 46.808594 212.402344 C 45.878906 212.164062 44.953125 211.921875 44.023438 211.683594 C 43.992188 211.613281 43.960938 211.570312 43.933594 211.550781 Z M 51.113281 213.625 C 50.855469 211.863281 48.664062 210.316406 47.386719 209.273438 C 46.246094 208.335938 45.046875 207.527344 43.761719 206.800781 C 45.378906 207.289062 46.894531 207.933594 48.4375 208.792969 C 49.078125 209.242188 49.699219 209.71875 50.292969 210.171875 C 51.988281 211.449219 53.140625 212.84375 54.136719 214.675781 C 53.140625 214.296875 52.125 213.949219 51.113281 213.625 Z M 47.484375 212.386719 C 45.609375 209.753906 43.097656 207.613281 40.3125 206 C 40.386719 206.011719 40.460938 206.027344 40.539062 206.042969 C 40.984375 206.128906 41.433594 206.214844 41.855469 206.304688 C 43.421875 207.160156 44.933594 208.148438 46.347656 209.292969 C 47.679688 210.375 49.535156 211.773438 50.308594 213.390625 C 49.375 213.101562 48.441406 212.839844 47.511719 212.578125 C 47.527344 212.527344 47.519531 212.453125 47.484375 212.386719 Z M 106.277344 242.261719 C 105.96875 241.964844 105.640625 241.691406 105.316406 241.421875 C 106.9375 239.582031 109.117188 238.324219 110.820312 236.546875 C 109.621094 238.644531 108.179688 240.554688 106.277344 242.261719 Z M 132.757812 249.402344 C 134.835938 250.285156 136.855469 251.253906 138.914062 252.167969 C 140.328125 252.777344 141.800781 253.476562 143.292969 253.957031 C 139.1875 253.851562 135.007812 253.582031 130.964844 252.859375 C 126.449219 252.078125 122.777344 249.953125 118.871094 247.710938 C 122.449219 247.839844 125.476562 249.300781 128.53125 251.511719 C 128.71875 251.65625 128.949219 251.359375 128.757812 251.214844 C 126.601562 249.5625 123.996094 247.828125 121.242188 247.152344 C 122.40625 247.335938 123.539062 247.671875 124.617188 248.132812 C 127.386719 249.289062 129.820312 251.195312 132.210938 252.960938 C 132.402344 253.105469 132.652344 252.804688 132.441406 252.664062 C 129.894531 250.652344 127.335938 248.714844 124.328125 247.421875 C 123.558594 247.085938 122.667969 246.769531 121.742188 246.527344 C 125.519531 246.703125 129.183594 247.863281 132.757812 249.402344 Z M 74.964844 276.242188 C 75.125 276.148438 75.222656 275.992188 75.226562 275.847656 C 80.816406 272.511719 86.496094 268.050781 88.226562 261.570312 C 89.75 263.378906 91.613281 264.632812 93.96875 265.578125 C 99.78125 267.929688 106.839844 269.292969 112.664062 266.265625 C 112.84375 266.167969 112.734375 265.894531 112.527344 265.96875 C 106.492188 268.296875 100.121094 267.207031 94.300781 264.808594 C 91.019531 263.449219 88.871094 261.484375 87.109375 258.449219 C 85.535156 255.703125 84.398438 252.824219 83.121094 249.945312 C 83.214844 249.90625 83.28125 249.871094 83.375 249.835938 C 83.398438 249.832031 83.421875 249.832031 83.46875 249.824219 C 83.648438 249.898438 83.875 249.964844 84.09375 249.984375 C 85.59375 252.496094 87.550781 254.828125 89.550781 256.9375 C 91.742188 259.214844 94.292969 262 97.375 262.945312 C 97.550781 262.996094 97.660156 262.738281 97.480469 262.664062 C 94.292969 261.636719 91.519531 258.445312 89.351562 255.996094 C 87.691406 254.082031 86.304688 252.039062 84.917969 249.96875 C 85.132812 249.941406 85.320312 249.894531 85.484375 249.871094 C 86.046875 249.722656 86.546875 249.464844 86.957031 249.09375 C 89.183594 252.722656 92.101562 255.894531 95.433594 258.550781 C 95.625 258.722656 95.847656 258.402344 95.660156 258.257812 C 92.472656 255.410156 89.8125 252.152344 87.496094 248.585938 C 88.199219 248.589844 89.046875 248.429688 89.726562 248.070312 C 90.074219 249.210938 90.921875 250.117188 91.667969 251.011719 C 92.5625 252.078125 93.433594 253.175781 94.195312 254.355469 C 94.316406 254.535156 94.609375 254.351562 94.511719 254.171875 C 93.3125 251.90625 91.148438 250.183594 90.203125 247.8125 C 90.199219 247.792969 90.175781 247.792969 90.171875 247.769531 C 90.324219 247.628906 90.472656 247.488281 90.574219 247.328125 C 96.136719 252.742188 102.3125 257.636719 108.648438 262.125 C 108.867188 262.289062 109.136719 261.964844 108.917969 261.773438 C 102.640625 257.011719 96.722656 251.863281 90.863281 246.589844 C 90.875 246.492188 90.886719 246.390625 90.871094 246.273438 C 90.855469 246.175781 90.777344 246.117188 90.679688 246.128906 C 90.675781 246.105469 90.675781 246.082031 90.695312 246.054688 C 90.863281 246.226562 91.226562 246.226562 91.359375 245.941406 C 91.558594 245.453125 91.976562 245.132812 92.152344 244.625 C 92.191406 244.546875 92.226562 244.445312 92.234375 244.347656 C 93.066406 244.746094 93.894531 245.144531 94.683594 245.621094 C 96.207031 246.507812 97.648438 247.527344 99.027344 248.605469 C 101.921875 250.882812 104.433594 253.554688 106.730469 256.445312 C 106.90625 256.664062 107.210938 256.40625 107.0625 256.183594 C 104.992188 253.1875 102.4375 250.546875 99.613281 248.257812 C 97.46875 246.535156 94.964844 244.636719 92.332031 243.414062 C 92.328125 243.390625 92.324219 243.367188 92.324219 243.367188 C 92.304688 243.054688 92.242188 242.746094 92.105469 242.449219 C 96.804688 243.910156 102.128906 245.332031 105.769531 248.675781 C 105.9375 248.824219 106.214844 248.542969 106.050781 248.398438 C 102.378906 244.644531 96.945312 243.140625 92.035156 241.5625 C 92.324219 241.1875 92.507812 240.726562 92.554688 240.355469 C 92.589844 240.085938 92.597656 239.792969 92.515625 239.511719 C 95.496094 239.890625 98.53125 239.949219 101.449219 240.773438 C 104.574219 241.664062 106.691406 243.925781 108.199219 246.707031 C 109.609375 249.304688 110.636719 252.097656 111.75 254.832031 C 112.972656 257.84375 116.046875 262.546875 113.1875 265.46875 C 113.0625 265.609375 113.285156 265.820312 113.414062 265.707031 C 115.9375 263.554688 114.71875 260.203125 113.714844 257.601562 C 112.394531 253.851562 111.070312 249.910156 109.21875 246.351562 C 109.085938 246.078125 108.929688 245.832031 108.773438 245.5625 C 111.296875 246.683594 114.132812 247.25 116.554688 248.527344 C 116.542969 248.625 116.585938 248.742188 116.648438 248.851562 C 119.21875 252.871094 119.984375 257.734375 122.660156 261.644531 C 125.15625 265.285156 128.921875 266.648438 133.21875 266.902344 C 133.460938 266.917969 133.511719 266.546875 133.265625 266.53125 C 130.9375 266.332031 128.535156 265.925781 126.527344 264.664062 C 124.570312 263.449219 123.25 261.515625 122.230469 259.496094 C 120.742188 256.519531 119.988281 253.207031 118.570312 250.195312 C 119.335938 251.207031 119.921875 252.34375 120.398438 253.5625 C 121.476562 256.203125 122.375 258.945312 124.507812 260.960938 C 124.671875 261.109375 124.929688 260.859375 124.785156 260.683594 C 122.132812 258.03125 121.878906 254.140625 120.125 250.957031 C 119.707031 250.191406 119.171875 249.4375 118.546875 248.746094 L 118.574219 248.765625 C 120.542969 250.078125 121.703125 252.273438 122.820312 254.28125 C 124.933594 258.144531 127.554688 261.285156 131.511719 263.347656 C 131.691406 263.445312 131.820312 263.140625 131.640625 263.042969 C 129.132812 261.679688 126.941406 259.789062 125.324219 257.460938 C 124.003906 255.554688 123.160156 253.390625 121.949219 251.394531 C 121.546875 250.722656 121.085938 250.152344 120.578125 249.613281 C 122.835938 250.9375 125.195312 252.101562 127.695312 252.859375 C 128.6875 253.429688 129.59375 254.207031 130.480469 254.886719 C 131.75 255.855469 133 256.878906 134.011719 258.097656 C 135.625 260.042969 138.085938 264.898438 134.777344 266.597656 C 134.414062 266.789062 134.632812 267.34375 135.023438 267.195312 C 138.007812 265.949219 137.007812 261.867188 135.796875 259.703125 C 134.878906 258.082031 133.585938 256.726562 132.167969 255.535156 C 131.242188 254.761719 130.238281 253.949219 129.175781 253.269531 C 129.527344 253.34375 129.875 253.417969 130.25 253.488281 C 134.941406 254.34375 139.820312 254.421875 144.582031 254.34375 C 144.605469 254.339844 144.652344 254.335938 144.671875 254.308594 C 144.796875 254.339844 144.898438 254.351562 145.023438 254.382812 C 145.34375 254.4375 145.472656 253.960938 145.167969 253.832031 C 142.972656 252.816406 140.578125 252.117188 138.367188 251.148438 C 136.128906 250.164062 133.90625 249.125 131.632812 248.242188 C 127.703125 246.730469 123.484375 245.617188 119.261719 246.109375 C 118.191406 246.054688 117.167969 246.191406 116.28125 246.648438 C 114.449219 245.800781 112.460938 245.242188 110.484375 244.753906 C 110.40625 244.742188 110.335938 244.75 110.269531 244.785156 C 109.601562 244.507812 108.917969 244.285156 108.214844 244.085938 C 108.0625 244.035156 107.917969 244.054688 107.804688 244.09375 C 107.628906 243.875 107.472656 243.628906 107.300781 243.410156 C 110.535156 244.046875 113.429688 245.429688 116.613281 246.21875 C 116.8125 246.261719 116.890625 245.9375 116.710938 245.863281 C 113.589844 244.804688 110.378906 242.710938 107.011719 242.699219 L 106.988281 242.699219 C 109.960938 239.929688 112.480469 236.277344 113.328125 232.265625 C 113.910156 230.636719 114.214844 228.925781 114.355469 227.234375 C 114.371094 226.992188 114 226.945312 113.960938 227.191406 C 113.683594 230.378906 112.699219 233.558594 110.390625 235.851562 C 108.550781 237.695312 106.21875 238.902344 104.484375 240.828125 C 104.0625 240.546875 103.59375 240.316406 103.109375 240.117188 C 101.46875 239.4375 99.6875 239.164062 97.933594 238.914062 C 96.007812 238.636719 94.058594 238.363281 92.09375 238.359375 C 92.113281 238.332031 92.109375 238.28125 92.128906 238.257812 C 93.40625 238.207031 94.640625 238.019531 95.882812 237.710938 C 96.140625 237.648438 96.113281 237.242188 95.828125 237.28125 C 94.585938 237.421875 93.355469 237.464844 92.125 237.503906 C 92.105469 237.339844 92.035156 237.179688 91.984375 236.992188 C 95.308594 236.648438 98.574219 235.535156 101.578125 234.070312 C 101.78125 233.96875 101.644531 233.671875 101.4375 233.75 C 98.527344 234.8125 95.582031 235.421875 92.566406 235.898438 C 94.941406 235.171875 97.3125 233.863281 99.476562 232.847656 C 102.214844 231.5625 104.863281 230.191406 107.46875 228.660156 C 107.71875 228.503906 107.46875 228.101562 107.222656 228.230469 C 104.5625 229.554688 101.878906 230.878906 99.15625 232.066406 C 97.828125 232.65625 96.519531 233.191406 95.160156 233.734375 C 93.757812 234.285156 92.230469 234.65625 90.902344 235.390625 C 90.710938 235.222656 90.492188 235.058594 90.285156 234.941406 C 93.949219 230.09375 98.902344 227.449219 103.976562 224.253906 C 104.269531 224.070312 103.988281 223.597656 103.667969 223.738281 C 98.292969 226.125 92.398438 229.523438 89.039062 234.5 C 88.914062 234.46875 88.765625 234.464844 88.644531 234.457031 C 88.707031 234.375 88.765625 234.269531 88.769531 234.125 C 88.914062 232.117188 89.769531 230.359375 90.34375 228.464844 C 90.832031 226.851562 90.972656 225.183594 90.796875 223.488281 C 90.710938 222.480469 90.480469 221.472656 90.179688 220.492188 C 90.226562 220.488281 90.296875 220.453125 90.339844 220.421875 C 94.542969 217.976562 98.921875 216.277344 103.816406 215.917969 C 106.332031 215.730469 109.320312 215.597656 111.144531 217.65625 C 112.773438 219.523438 113.695312 222.285156 114.160156 224.667969 C 114.179688 224.835938 114.445312 224.800781 114.421875 224.632812 C 114.011719 222.097656 113.28125 219.335938 111.625 217.277344 C 110.175781 215.484375 108.039062 215.089844 105.855469 215.042969 C 100.289062 214.910156 94.5 216.359375 89.8125 219.378906 C 89.039062 217.375 87.890625 215.492188 86.53125 213.832031 C 84.25 211.058594 81.363281 208.828125 78.449219 206.769531 C 77.085938 205.808594 75.574219 204.65625 73.984375 204.164062 C 75.226562 203.125 76.304688 201.941406 77.160156 200.542969 C 77.578125 199.859375 77.914062 199.109375 78.226562 198.367188 C 78.816406 196.980469 79.441406 196.21875 80.714844 195.394531 C 81.941406 194.601562 82.320312 193.269531 83.273438 192.222656 C 84.734375 190.644531 86.730469 189.800781 88.550781 188.757812 C 88.550781 188.757812 88.550781 188.757812 88.578125 188.753906 C 88.601562 188.75 88.625 188.75 88.648438 188.746094 C 89.175781 188.699219 89.046875 187.917969 88.539062 187.9375 C 88.058594 187.953125 87.527344 187.972656 86.976562 188.023438 C 86.898438 187.960938 86.773438 187.953125 86.660156 188.015625 C 86.636719 188.019531 86.617188 188.046875 86.59375 188.050781 C 84.347656 188.277344 81.851562 188.824219 80.429688 190.347656 C 80.324219 190.457031 80.492188 190.628906 80.625 190.539062 C 81.839844 189.652344 83.4375 189.269531 85.054688 189.054688 C 79.691406 192.625 74.476562 196.589844 69.609375 200.773438 C 67.261719 202.804688 65.195312 205.113281 63.132812 207.445312 C 61.71875 209.039062 60.164062 210.652344 58.816406 212.355469 C 59.140625 211.683594 59.410156 210.992188 59.753906 210.292969 C 60.574219 208.609375 61.578125 207.070312 62.714844 205.589844 C 64.84375 202.835938 67.316406 200.472656 69.75 198.015625 C 69.921875 197.847656 69.644531 197.570312 69.445312 197.71875 C 66.929688 199.941406 64.414062 202.335938 62.3125 204.9375 C 62.164062 205.105469 62.023438 205.292969 61.902344 205.480469 C 62.625 204.195312 63.457031 202.96875 64.390625 201.78125 C 64.53125 201.59375 64.234375 201.363281 64.089844 201.554688 C 61.84375 204.152344 59.671875 207.132812 58.339844 210.386719 C 57.964844 207.042969 57.589844 203.679688 57.21875 200.335938 C 57.160156 199.714844 57.035156 193.84375 55.113281 195.773438 C 54.984375 195.910156 54.910156 196.066406 54.984375 196.273438 C 55.019531 196.363281 55.054688 196.433594 55.089844 196.523438 C 55.207031 196.847656 55.703125 196.757812 55.757812 196.4375 C 55.972656 196.769531 56.066406 197.121094 56.074219 197.53125 C 56.101562 197.746094 56.128906 197.960938 56.15625 198.175781 C 56.242188 198.820312 56.355469 199.480469 56.441406 200.125 C 56.652344 201.527344 56.839844 202.929688 57.050781 204.332031 C 57.378906 206.636719 57.710938 208.941406 58.039062 211.25 C 57.933594 211.53125 57.847656 211.808594 57.765625 212.085938 C 57.691406 211.902344 57.617188 211.71875 57.546875 211.53125 C 56.917969 206.988281 54.4375 202.378906 51.621094 199.046875 C 51.503906 198.890625 51.285156 199.066406 51.402344 199.21875 C 52.886719 201.445312 54.175781 203.867188 55.140625 206.378906 C 55.292969 206.792969 55.449219 207.234375 55.578125 207.652344 C 54.890625 206.507812 54.121094 205.449219 53.367188 204.53125 C 50.734375 201.296875 49.492188 196.859375 48.308594 192.898438 C 48.261719 192.710938 47.933594 192.800781 47.984375 192.988281 C 48.46875 194.839844 48.980469 196.660156 49.605469 198.441406 C 50.203125 200.203125 50.777344 202.160156 51.808594 203.71875 C 52.925781 205.386719 54.136719 206.851562 55.121094 208.609375 C 55.5 209.261719 55.832031 209.945312 56.164062 210.601562 C 55.542969 209.59375 54.839844 208.671875 54.023438 207.808594 C 51.457031 205.097656 49.894531 202.085938 48.535156 198.609375 C 46.011719 192.183594 44.707031 185.285156 43.511719 178.492188 C 44.65625 179.988281 46.234375 181.277344 47.574219 182.433594 C 48.203125 182.980469 48.996094 183.308594 49.578125 183.863281 C 50.191406 184.457031 50.515625 185.238281 50.8125 186.023438 C 51.410156 187.613281 51.824219 189.28125 52.566406 190.828125 C 52.667969 191.058594 53.046875 190.984375 53.007812 190.699219 C 52.804688 189.175781 52.289062 187.644531 51.851562 186.175781 C 51.511719 185.082031 51.132812 183.898438 50.273438 183.066406 C 49.722656 182.558594 49.003906 182.265625 48.429688 181.785156 C 47.808594 181.289062 47.269531 180.707031 46.691406 180.175781 C 45.308594 178.882812 43.816406 177.675781 43.179688 175.824219 C 42.980469 175.21875 42.085938 175.605469 42.289062 176.207031 C 42.332031 176.347656 42.394531 176.460938 42.4375 176.601562 C 42.234375 177.621094 42.179688 178.667969 42 179.6875 C 41.796875 180.898438 41.441406 182.0625 41.191406 183.28125 C 40.78125 185.273438 40.511719 187.636719 41.917969 189.289062 C 41.828125 189.324219 41.769531 189.429688 41.785156 189.550781 C 42 190.804688 41.1875 191.980469 41.5 193.246094 C 41.75 194.207031 42.390625 195.015625 42.753906 195.9375 C 42.792969 196.777344 42.679688 197.546875 43.332031 198.257812 C 43.667969 198.625 44.050781 198.9375 44.34375 199.335938 C 44.699219 199.820312 44.914062 200.347656 45.269531 200.835938 C 45.480469 201.121094 45.9375 200.914062 45.890625 200.582031 C 45.75 199.703125 45.136719 198.914062 44.546875 198.289062 C 44.152344 197.882812 43.769531 197.546875 43.546875 196.96875 C 43.503906 196.832031 43.464844 196.714844 43.445312 196.570312 C 43.582031 196.503906 43.707031 196.367188 43.683594 196.175781 C 43.558594 194.886719 42.476562 194.011719 42.285156 192.753906 C 42.132812 191.609375 42.648438 190.597656 42.300781 189.433594 C 42.296875 189.410156 42.296875 189.410156 42.273438 189.386719 C 42.363281 189.351562 42.445312 189.242188 42.429688 189.125 C 41.859375 186.65625 41.917969 184.542969 42.484375 182.066406 C 42.746094 180.917969 42.953125 179.753906 43.0625 178.574219 C 44.074219 185.078125 45.152344 191.574219 47.363281 197.820312 C 48.417969 200.828125 49.675781 204.074219 51.707031 206.59375 C 52.691406 207.816406 53.867188 208.824219 54.765625 210.109375 C 55.871094 211.683594 56.535156 213.410156 57.023438 215.261719 C 57.007812 215.3125 56.960938 215.339844 56.945312 215.390625 C 56.769531 215.730469 57 215.988281 57.296875 216.046875 C 57.550781 216.304688 58.066406 216.1875 58.027344 215.707031 C 58.023438 215.683594 58.019531 215.660156 58.019531 215.636719 L 58.039062 215.609375 C 58.816406 218.535156 60.375 220.96875 62.121094 223.351562 C 62.175781 223.753906 62.253906 224.179688 62.351562 224.554688 C 62.554688 225.351562 62.832031 226.140625 63.148438 226.898438 C 62.957031 226.898438 62.738281 226.902344 62.546875 226.929688 C 62.546875 226.929688 62.546875 226.929688 62.542969 226.902344 C 60.691406 223.542969 58.527344 220.390625 57.269531 216.753906 C 57.078125 216.222656 56.277344 216.570312 56.46875 217.101562 C 56.503906 217.167969 56.511719 217.242188 56.546875 217.308594 C 55.75 217.707031 54.953125 218.078125 54.144531 218.378906 C 54.660156 217.898438 55.171875 217.371094 55.585938 216.832031 C 55.648438 216.75 55.660156 216.652344 55.671875 216.578125 C 55.871094 216.601562 56.066406 216.621094 56.261719 216.644531 C 56.4375 216.671875 56.59375 216.40625 56.410156 216.285156 C 54.570312 215.199219 52.195312 215.367188 50.132812 215.546875 C 48.699219 215.6875 47.15625 216.109375 45.738281 215.816406 C 44.636719 215.574219 43.808594 214.980469 42.667969 215.15625 C 42.640625 215.113281 42.589844 215.09375 42.519531 215.128906 C 42.027344 215.242188 41.550781 215.304688 41.066406 215.296875 C 40.25 215.164062 39.410156 215.058594 38.574219 214.976562 C 37.722656 214.75 36.882812 214.449219 36.089844 214.140625 C 34.175781 213.402344 32.28125 212.636719 30.363281 211.875 C 30.160156 211.804688 29.953125 211.710938 29.746094 211.617188 C 29.710938 211.527344 29.625 211.417969 29.503906 211.433594 C 29.457031 211.4375 29.410156 211.445312 29.363281 211.453125 C 26.238281 210.195312 23.25 208.824219 20.425781 206.921875 C 20.492188 206.867188 20.585938 206.828125 20.648438 206.773438 C 20.675781 206.792969 20.699219 206.789062 20.726562 206.808594 C 32.488281 209.632812 44.484375 211.863281 56.003906 215.589844 C 56.230469 215.65625 56.355469 215.347656 56.152344 215.253906 C 55.765625 215.085938 55.355469 214.925781 54.972656 214.78125 C 54.710938 213.53125 54.039062 212.484375 53.1875 211.554688 C 53.296875 211.636719 53.429688 211.714844 53.535156 211.796875 C 54.40625 212.507812 55.234375 213.292969 55.988281 214.210938 C 56.191406 214.449219 56.515625 214.164062 56.359375 213.917969 C 56.359375 213.894531 56.355469 213.871094 56.324219 213.828125 C 56.292969 213.78125 56.265625 213.761719 56.238281 213.71875 C 54.859375 211.742188 53.230469 210.046875 51.292969 208.609375 C 50.195312 207.8125 49.023438 207.019531 48.113281 206.003906 C 47.058594 204.8125 46.726562 203.597656 46.476562 202.078125 C 46.40625 201.53125 45.632812 201.5625 45.535156 202.082031 C 45.117188 204.050781 46.382812 205.917969 47.773438 207.261719 C 46.542969 206.574219 45.25 205.972656 43.84375 205.601562 C 40.882812 204.808594 37.777344 204.421875 34.777344 203.902344 C 33.882812 203.730469 32.074219 203.074219 31.191406 203.335938 C 30.980469 203.386719 30.828125 203.53125 30.648438 203.625 C 29.703125 204.164062 29.867188 204.480469 28.851562 203.960938 C 28.488281 203.769531 28.128906 204.371094 28.5 204.589844 C 29.078125 204.925781 29.808594 205.335938 30.484375 205.125 C 30.996094 204.960938 31.054688 204.492188 31.488281 204.289062 C 31.921875 204.085938 33.519531 204.648438 34.015625 204.730469 C 34.636719 204.839844 35.28125 204.949219 35.902344 205.058594 C 36.222656 205.113281 36.519531 205.171875 36.84375 205.226562 C 39.441406 206.550781 41.210938 209.101562 43.117188 211.246094 C 41.867188 210.929688 40.585938 210.613281 39.335938 210.296875 C 33.542969 208.8125 27.730469 207.382812 21.925781 205.972656 C 22.675781 205.605469 23.46875 205.378906 24.214844 204.988281 C 24.988281 204.597656 25.617188 204.246094 26.46875 204.085938 C 27.0625 203.980469 27.378906 203.988281 27.871094 203.679688 C 28.09375 203.554688 27.878906 203.21875 27.648438 203.296875 C 26.9375 203.585938 26.097656 203.285156 25.367188 203.457031 C 24.546875 203.660156 23.878906 204.285156 23.121094 204.601562 C 22.25 204.960938 21.363281 205.222656 20.605469 205.710938 C 20.539062 205.746094 20.46875 205.777344 20.429688 205.832031 C 20.050781 206.101562 19.707031 206.414062 19.417969 206.816406 C 19.273438 207.003906 19.40625 207.253906 19.605469 207.296875 C 22.023438 209.277344 24.9375 210.609375 27.878906 211.769531 C 27.21875 211.90625 26.585938 212.0625 25.917969 212.128906 C 25.078125 212.214844 24.238281 212.253906 23.457031 212.601562 C 22.910156 212.84375 22.421875 213.175781 22.074219 213.65625 C 21.414062 214.542969 21.222656 215.269531 20.507812 215.921875 C 20.285156 216.050781 20.085938 216.199219 19.914062 216.367188 C 19.871094 216.394531 19.824219 216.425781 19.78125 216.457031 C 19.738281 216.484375 19.71875 216.535156 19.703125 216.589844 C 19.660156 216.640625 19.617188 216.671875 19.570312 216.703125 C 19.363281 216.949219 19.523438 217.242188 19.753906 217.332031 C 19.753906 217.332031 19.777344 217.328125 19.78125 217.351562 L 19.804688 217.351562 C 19.828125 217.347656 19.851562 217.367188 19.878906 217.363281 C 20.863281 217.5 21.847656 217.417969 22.835938 217.550781 C 24.21875 217.753906 25.167969 218.355469 26.289062 219.128906 C 27.703125 220.101562 29.320312 220.421875 30.898438 221.011719 C 31.128906 221.101562 31.285156 220.8125 31.117188 220.640625 C 30.738281 220.328125 30.34375 220.113281 29.910156 219.953125 C 32.402344 218.460938 35.195312 217.96875 37.394531 215.933594 C 37.4375 215.878906 37.476562 215.824219 37.496094 215.773438 C 37.859375 215.773438 38.199219 215.777344 38.5625 215.777344 C 36.929688 217.179688 35.269531 218.539062 33.515625 219.742188 C 33.339844 219.863281 33.539062 220.101562 33.71875 219.980469 C 35.804688 218.734375 37.8125 217.425781 39.628906 215.78125 C 40.53125 215.828125 41.417969 215.761719 42.328125 215.519531 C 42.335938 215.734375 42.511719 215.976562 42.820312 215.9375 C 43.347656 215.890625 43.851562 216.042969 44.335938 216.21875 C 43.632812 216.578125 43.011719 217.195312 42.398438 217.664062 C 41.277344 218.539062 40.1875 219.4375 39.066406 220.289062 C 39.019531 220.316406 39.003906 220.367188 38.984375 220.417969 C 37.621094 220.746094 36.390625 220.765625 35.136719 220.640625 C 37.179688 219.398438 39.324219 218.046875 40.984375 216.324219 C 41.242188 216.074219 40.828125 215.71875 40.539062 215.902344 C 38.449219 217.292969 36.527344 219.050781 34.519531 220.554688 C 34.027344 220.472656 33.53125 220.394531 33.03125 220.289062 C 32.632812 220.199219 32.519531 220.792969 32.851562 220.945312 C 34.507812 221.742188 36.550781 221.785156 38.347656 221.449219 C 39.457031 221.230469 40.492188 220.824219 41.617188 220.722656 C 42.167969 220.675781 42.75 220.671875 43.3125 220.714844 C 43.335938 220.714844 43.363281 220.734375 43.386719 220.730469 C 44.070312 220.761719 44.753906 220.816406 45.433594 220.820312 C 49.433594 220.847656 53.382812 219.765625 56.765625 217.691406 C 58.101562 221.003906 60.210938 223.945312 62.269531 226.84375 C 57.949219 227.128906 53.695312 228.664062 50.328125 231.410156 C 47.96875 233.347656 43.3125 237.671875 45.554688 241.058594 C 45.675781 241.234375 45.941406 241.054688 45.871094 240.871094 C 43.992188 236.953125 49.554688 232.871094 52.425781 231.132812 C 55.785156 229.085938 59.585938 227.976562 63.527344 227.910156 C 63.597656 227.902344 63.644531 227.894531 63.714844 227.886719 C 64.339844 229.113281 65.125 230.269531 66.015625 231.335938 C 64.253906 230.820312 62.324219 230.710938 60.574219 230.847656 C 60.308594 230.859375 60.363281 231.265625 60.628906 231.253906 C 62.917969 231.167969 64.84375 231.636719 66.898438 232.332031 C 68.230469 233.777344 69.757812 235.054688 71.398438 236.09375 C 68.289062 234.933594 65.007812 234.304688 61.714844 234.136719 C 61.46875 234.121094 61.402344 234.515625 61.667969 234.53125 C 66.746094 234.992188 71.351562 236.660156 75.792969 239.097656 C 75.820312 239.117188 75.84375 239.113281 75.871094 239.132812 C 75.835938 239.234375 75.824219 239.335938 75.789062 239.433594 C 73.0625 238.222656 69.941406 237.523438 67.058594 236.988281 C 63.65625 236.347656 60.320312 236.234375 56.902344 236.398438 C 56.710938 236.398438 56.746094 236.6875 56.941406 236.683594 C 60.28125 236.652344 63.691406 237 66.996094 237.601562 C 68.855469 237.933594 70.621094 238.476562 72.398438 239.0625 C 68.835938 238.519531 65.21875 238.464844 61.628906 238.605469 C 56.761719 238.792969 51.917969 239.167969 47.277344 240.707031 C 47.023438 240.789062 47.191406 241.15625 47.445312 241.070312 C 56.429688 238.300781 66.710938 238.558594 75.820312 240.59375 C 75.789062 240.695312 75.773438 240.769531 75.761719 240.867188 C 75.765625 240.890625 75.746094 240.917969 75.746094 240.917969 C 70.472656 241.351562 65.113281 240.394531 59.964844 241.925781 C 59.707031 242.007812 59.835938 242.429688 60.09375 242.371094 C 64.886719 241.25 69.804688 241.976562 74.671875 241.789062 C 73.703125 242.136719 72.6875 242.34375 71.707031 242.617188 C 70.074219 243.078125 68.460938 243.535156 66.777344 243.808594 C 66.515625 243.84375 66.570312 244.246094 66.832031 244.210938 C 68.621094 244 70.410156 243.613281 72.171875 243.1875 C 73.320312 242.914062 74.65625 242.757812 75.714844 242.15625 C 75.746094 242.394531 75.777344 242.632812 75.808594 242.871094 C 73.492188 243.664062 71.277344 245.050781 69.230469 246.386719 C 67.824219 247.300781 66.507812 248.324219 65.359375 249.542969 C 61.773438 249.339844 58.484375 248.664062 55.027344 247.621094 C 51.472656 246.570312 48.792969 245.011719 46.726562 241.84375 C 46.605469 241.667969 46.292969 241.855469 46.386719 242.035156 C 47.085938 243.445312 48.015625 244.628906 49.136719 245.59375 C 51.769531 249.726562 58.363281 253.015625 63.316406 252.210938 C 61.507812 255.359375 60.589844 259.9375 62.925781 262.945312 C 63.25 263.363281 63.875 262.964844 63.710938 262.480469 C 63.003906 260.417969 62.519531 258.617188 62.933594 256.429688 C 63.316406 254.394531 64.300781 252.492188 65.613281 250.890625 C 68.195312 247.710938 72.097656 244.820312 75.914062 243.269531 C 76.054688 243.808594 76.289062 244.285156 76.550781 244.613281 C 76.035156 248.558594 72.675781 251.914062 69.972656 254.527344 C 69.800781 254.691406 70.035156 255 70.207031 254.832031 C 72.796875 252.453125 76.335938 249.367188 77.179688 245.695312 C 77.578125 246.320312 78.199219 246.792969 78.875 247.164062 C 78.289062 248.042969 77.757812 248.960938 77.089844 249.777344 C 76.460938 250.511719 75.722656 251.144531 75.101562 251.929688 C 73.671875 253.742188 72.601562 255.894531 71.40625 257.847656 C 71.308594 258.03125 71.554688 258.238281 71.675781 258.054688 C 72.957031 256.042969 74.113281 253.804688 75.691406 251.996094 C 76.699219 250.820312 77.753906 249.832031 78.636719 248.648438 C 75.96875 256.078125 70.175781 262.808594 70.457031 270.933594 C 70.453125 271.078125 70.714844 271.066406 70.722656 270.921875 C 70.953125 263.1875 75.941406 257.339844 78.769531 250.546875 C 78.058594 254.320312 77.679688 258.199219 77.292969 262.03125 C 77.273438 262.25 77.589844 262.28125 77.613281 262.085938 C 78.339844 257.335938 79.066406 252.613281 79.917969 247.898438 C 80.128906 248.402344 80.484375 248.863281 80.917969 249.21875 C 80.910156 249.339844 80.902344 249.460938 80.921875 249.605469 C 80.972656 250.90625 81.410156 252.207031 81.488281 253.503906 C 81.667969 256.675781 81.085938 259.78125 79.257812 262.421875 C 79.152344 262.558594 79.371094 262.722656 79.472656 262.589844 C 80.859375 260.804688 81.648438 258.714844 81.929688 256.472656 C 82.085938 255.265625 82.09375 254.050781 81.980469 252.832031 C 81.902344 251.898438 81.46875 250.625 81.523438 249.574219 C 81.832031 249.726562 82.183594 249.824219 82.527344 249.851562 C 83.574219 253.152344 85.222656 256.445312 87.019531 259.40625 C 87.355469 259.941406 87.6875 260.429688 88.042969 260.917969 C 86.496094 264.390625 84.679688 267.296875 81.769531 269.839844 C 79.292969 271.988281 76.488281 273.667969 73.777344 275.503906 C 71.199219 275.96875 69.699219 273.601562 68.28125 271.511719 C 66.863281 269.402344 64.992188 267.007812 64.164062 264.597656 C 64.085938 264.367188 63.742188 264.511719 63.796875 264.746094 C 64.71875 268.039062 66.863281 271.410156 68.875 274.148438 C 70.207031 276.34375 72.539062 277.65625 74.964844 276.242188 " fill-opacity="1" fill-rule="nonzero"/></g></g></g></g></svg>